<?xml version="1.0" encoding="UTF-8"?><svg id="Layer_2" xmlns="http://www.w3.org/2000/svg" viewBox="0 0 1059.4 1095.37"><defs><style>.cls-1{fill:#252525;}</style></defs><g id="Layer_1-2"><path class="cls-1" d="m300.35,636.77c8.64-3.86,16.52.64,24.78,1.76,2.99.4,6.27,2,8.62-.71,5.56-6.41,12.14-4.82,19.29-3.85,24.85,3.35,49.32,10.43,74.82,7.9,6.97-.69,12.76,3.68,19.22,5.09,3.46.76,8.13,4.7,10.67-.02,2.15-3.98-3.14-5.82-5.35-8.45-7.88-9.39-18.04-15.12-29.66-18.65-2.55-.78-4.85-2.46-7.2-3.83-10.81-6.31-21.63-12.1-34.84-12.11-6.56,0-13.11-2.02-19.4-4.62-22.09-9.16-45.66-10.36-69-13.88-25.22-3.81-47.77,8.03-71.95,6.99-28.88-1.25-58.66,7.62-86.4-7.57-4.5-2.46-9.73-3.44-15.03-1.37-1.29.5-3.39.78-4.3.09-6.31-4.79-14.28-4.92-21.24-7.86-8.91-3.76-16.98-3.17-26.83.51-20.72,7.72-42.79,7.57-64.51,2.29-1.18-.29-2.2-.99-2.02-2.62,2.31-1.68,4.75-.21,6.89.28,17.63,4.06,34.87-1.07,52.28-1.98,1.77-.09,4.07-.4,5.15-1.53,9.67-10.14,20.02-4.75,29.98-1.2,6.66,2.37,13.19,4.02,20.32,4.15,15.18.28,28.55,7.95,43.34,10.61-26.06-10.96-54.06-17.85-77.57-35.53,3.43-2.57,5-.52,6.65.51,21.76,13.6,45.87,21.24,70.35,27.98,1.69.46,3.29,1.38,4.8,2.31,16,9.86,31.51,5,46.51-2.19,5.07-2.44,10.04-4.61,15.46-4.74,11.64-.28,22.93-2.39,34.23-4.92,11.54-2.59,23.34-1.4,36.9-.7-7.68-6.07-14.69-8.76-22.2-9.53-12.9-1.33-23.84-6.86-33.92-14.52-9.35-7.11-19.76-11.21-31.24-14.11-12.87-3.25-25.2-8.79-37.59-13.74-6.61-2.64-13.19-4.03-20.34-4.04-22.28-.04-43.62-4.49-64.86-11.69-18.03-6.12-34.89-15.82-54.08-18.49-8.78-1.22-7.99-10.38-13.89-14.59,1.87-.75,2.84-1.22,2.88-1.15,5.71,10.02,15.89,11.19,25.68,14.64,27.76,9.78,55.36,19.79,84.32,25.61,8.2,1.65,16.37.73,24.55,1.1,4.86.22,9.72.1,14.36,2.01,2.49,1.02,5.28,2.49,7.53-.27,2.03-2.49.89-5.21-.27-7.73-7.83-17.18-20.8-29.6-36.48-39.58-7.33-4.67-15.64-8.33-18.6-17.78-.7-2.24-2.9-3.82-5.78-3.63-17.08,1.14-30.21-7.1-42.86-17.98,5.11.93,5.16.85,8.64,3.34,8.06,5.76,17.48,12.26,26.56,10.53,12.69-2.42,15.87,5.17,20.81,12.66,1.12,1.7,3,3,4.75,4.17,5.92,3.93,13.18,5.47,17.75,12,2.06,2.95,7.29,6.18,11.3,2.85,4.96-4.11,8.46-9.88,7.1-16.83-3.96-20.23-13.14-28.74-33.67-32.44-3.72-.67-7.81-1.03-11.07-3.84,12.36-3.16,25.56,1.22,38.16,12.54,10.52,9.45,14.09,25.68,7.65,38.07-2.93,5.63-2.5,10.3.67,15.33,5.5,8.74,10.1,18.18,16.55,26.14,6.05,7.47,15.35,11.32,24.93,10.98,5.95-.21,10.63.92,15.28,4.06,7.05,4.75,14.16,9.43,21.24,14.15,6.12,4.09,12.57,7.84,19.97,8.43,15.98,1.27,29.77,8.42,43.24,15.98,8.54,4.79,16.7,6.77,26.03,3.45,3.42-1.22,7.1-1.7,10.58-2.77,8.05-2.5,15.84-5.59,23.87.81,2.27,1.81,6.7,2.3,9.7,1.58,10.63-2.56,16.84,3.39,23.7,9.97,13.9,13.34,30.03,23.79,47.32,32.17,5.73,2.78,9.87,6.2,10.98,12.28,1.26,6.86,6,11.15,10.42,15.65,5.19,5.28,10.18,3.73,13.33-2.12,2.25-4.19,4.04-9.11,4.33-13.81,1.45-23.27,4.8-46.46,1.47-69.92-2.09-14.71.8-29.74-2.09-44.56-1.43-7.32-4.77-10.85-11.89-14.07-11.22-5.06-20.8-13.63-31.73-19.5-17.07-9.17-34.5-17.73-52.16-25.7-7.26-3.27-15.55-1.92-23.39-.45-8.41,1.59-16.77,1.29-25.35-1.91,11.72-1.3,23.44-2.59,37.66-4.17-8.16-3.68-14.42-6.5-20.69-9.32,4.95-2,9.14-.64,12.5,1.48,10.97,6.94,22.87,9.02,35.54,8.41,5.93-.29,10.23,1.92,13.34,7.51,4.17,7.48,12.98,9.53,19.4,14.47,10.32,7.94,21.82,14.34,32.92,21.25,3.05,1.9,6.73,4.28,10.05,1.38,2.89-2.52-.48-5.57-.79-8.41-1.43-13.01-5.96-25.53-7.34-38.37-2.39-22.28-15.62-35.37-33.64-45.34-5.13-2.84-9.68-6.11-13.67-10.41-10.38-11.18-22.14-16.71-37.3-7.12,4.3-8.44,7.55-9.95,17.46-8.64,2.06.27,4.57,1.49,5.93-.55,1.41-2.1-.74-3.97-1.92-5.62-2.48-3.46-4.68-7-6.51-10.9-3.4-7.25-13.91-11.19-23.57-9.49-12.41,2.19-18.7-.45-23.27-10.93,8.66,9.38,18.93,6.34,29.41,6.12,8.17-.17,17.28,4.07,21.08,12.32,10.62,22.98,29.66,37.23,49.95,50.31,4.38,2.82,8.94,5.11,11.76,9.73.92,1.5,1.87,3.69,3.92,3.24,2.47-.55,2.59-3.22,2.75-5.23.68-8.31-.55-16.56-3.95-24-7.91-17.32-18.07-32.19-36.11-41.7-23.33-12.3-44.16-28.87-65.61-44.25-8.24-5.91-17.39-9.98-26.17-14.79-5.78-3.17-12.38-4.93-15.86-11.52-1.46-2.75-5.11-2.86-8.05-3.72-7.38-2.15-14.82-4.27-20.24-11.06,4.35,1.64,8.69,3.32,13.06,4.9,1.63.59,3.46,2.02,5.07.44,1.94-1.91.53-3.93-.46-5.8-.28-.54-.63-1.04-.92-1.57-4.76-8.48-10.05-15.58-9.64-27.28.39-11.26-3.92-24.59-16.47-31.67-3.46-1.95-7.45-4.11-9.59-8.28,17.63,3.63,31.02,20.42,31.93,41.82.43,10.08,3.65,15,14.05,15.71,14.43.99,27.35,7.54,40.66,12.53,10.23,3.83,20.34,7.88,31.41,9.05,8.96.94,14.82,6.59,18.16,14.76,3.08,7.54,8.41,12.84,14.53,18.2,9.11,7.97,15.77,18.4,21.65,28.98,3.35,6.03,7.14,10.53,14.25,11.21,2.47.23,4.39.25,5.74,3.19,3.2,7,10.42,8.21,17.21,10.1-2.88,6.83-3.31,13.62-3.95,20.47,4.45.72,5.25-2.35,5.96-4.76,3.18-10.71,3.58-22.62-.2-32.1-8.72-21.85-14.01-44.62-21.41-66.79-.19-.58-.2-1.23-.48-1.76-8.84-16.83-17.52-33.76-26.68-50.42-2.98-5.42-10.69-6.44-14.15-12.38,4.27-1.9,6.35.94,8.86,2.29,1.57.85,3.05,2.44,4.93,1.14,1.71-1.18,1.41-3.2,1.37-5.02-.1-3.62-2.28-6.12-4.42-8.75-6.77-8.31-12.62-16.98-13.89-28.18-.81-7.12-6.67-12.15-9.44-18.58-2.6-6.04-5.74-11.84-6.2-19.49,4.77,1.62,6.9,5.01,7.87,7.99,3.87,11.9,11.21,22.15,16.76,33.07,8.19,16.1,16.63,33.26,33.43,43.3,1.68,1.01,2.88,2.82,4.93,4.12-4.88-10.13-3.75-21.1-5.21-31.69-.36-2.6-1.59-5.25-3-7.51-2.41-3.85-5.11-6.39,2.32-8.42,5.24-1.43,6.39-18.3,1.8-24.34-20.99-27.62-14.87-57.2-4.36-85.71,4.69-12.72,5.32-24.57,4.7-37.22-.3-6.01-1.06-12-1.69-18.84,6.52,9.92,8.81,38.47,4.69,48.83-1.1,2.77-6.15,5.77-.42,9.08.22.13.02,1.91-.45,2.21-12.46,8.03-7.84,21.55-9.53,32.51-1.81,11.77-1.79,24.35,3.61,35.85,1.27,2.7,2.42,6.53,5.84,6.18,3.29-.34,2.6-4.42,3.09-6.89,1.13-5.65,1.21-11.53,2.65-17.08,3.43-13.23,9.46-25.61,13.79-38.57,4.17-12.46,3.29-24.43,4.57-36.62.37-3.5-.41-7.29,4.91-12.01-1.2,14.79,1.8,27.68-2.84,40.01-4.07,10.8-5.49,21.57-4.94,33.02.31,6.52-1.01,13.24-2.39,19.7-3.49,16.32-.59,31.77,5.9,47.24,1.17-19.2,20.44-31.43,17.12-53.76,5.18,4.42,4.4,13.49,13.26,6.63-15.72,18.19-20.03,38.69-23.26,59.31-1.29,8.24.11,16.93.61,25.39.24,4.01,3.27,6.79,6.53,8.23,4.27,1.89,5.87-2.66,7.48-5.07,6.24-9.33,15.07-17.74,11.88-31.41,5.84,1.92,7.62,4.74,5.98,9.88-4.05,12.72-10.47,24.08-20.48,32.88-5.43,4.78-7.32,10.02-6.71,16.85.73,8.16,1.13,16.34-2.47,24.82,4.82-.08,5.6-4.85,9.39-6.36.77,3.88-1.62,6.45-2.82,9.16-2.63,5.98-3.2,11.87-2.88,18.53.58,12.02-3.65,23.76-2.84,36.11.86,13.11,7.22,25.12,6.55,38.42-.08,1.51,1.33,3.78,2.7,4.57,8.97,5.21,12.9,14.27,17.6,22.68,2.86,5.12,6.1,6.3,10.94,2.77,2.44-1.79,5.48-2.94,7.51-5.08,13.59-14.25,28.58-27.13,41.25-42.27,3.3-3.95,4.21-8.29,3.3-13.58-2.41-13.98-7.17-27.39-7.52-41.99-.17-6.82-6.14-14.22-12.22-19.57-3.79-3.33-7.25-6.93-7.58-12.6,5.89,8.64,15.82,13.52,20.3,24.72,12.61-15.86,14.2-31.85,7.82-49.2-1.39-3.78-3.02-7.84,1.36-13.26.91,13.5,11.7,23.49,5.41,36.69-1.04,2.17-1.36,5.85.81,7.8,2.57,2.3,5.03-.58,7.42-1.54,2.25-.91,4.32-2.24,6.56-3.2,6.09-2.61,8.85-5.85,3.82-12.25-2.71-3.44-3.95-7.84-1.79-14.36,2.72,7.23,4.49,12.91,9.07,17.05,4.33,3.91,10.5,4.82,12.25,0,4.77-13.1,15.64-21.61,22.4-33.11,7.33-12.48,12.78-25.62,15.69-39.65,1.81-8.74,7.2-14.14,14.92-21.28-11.04,28.06-15.36,56.62-36.91,77.03-4.96,4.7-7.96,10.22-8.84,17.41-.81,6.65-5.61,12-9.78,17.12-5.74,7.06-11.94,13.76-18.17,20.41-6.16,6.58-10.77,13.46-11.55,23.05-.58,7.14-1.38,12.09,9.53,8.14-5.76,6.13-10.09,11.31-8.76,19.44.83,5.08,3.02,7.75,7.55,8.9,5.3,1.35,6.32-3,7.04-6.35,2.86-13.23,13.91-22.07,18.17-34.51.34-.99,1.66-2.31,2.56-2.34,11.14-.35,14.52-9.87,20.08-16.78,13.72-17.04,27.38-34.13,41.07-51.19,5.49-6.85,9.57-13.68,6.03-23.28-2.26-6.13.94-12.57,2.34-18.76,2.73-12.1,4.24-23.53-5.1-34.31-5.16-5.95-5.88-13.91-4.46-22.44,1.5-9.01.34-18.46,1.66-27.72,7.19,9.9,5.3,20.52,2.95,30.91-1.29,5.7-1.06,10.79,1.69,15.84.58,1.07,1.27,2.99,1.89,2.98,8.24-.11,9.04,4.57,8.12,11.25-.86,6.28,1.24,12.7-.66,19.05-1.56,5.24-2.73,10.6-4.01,15.92-.64,2.67-1.25,5.41,1.81,7.7,11.38-12.59,15.59-27.43,12.22-43.66-2.28-11-.6-21.52,2.48-31.36,5.26-16.77,8.67-34.11,15.68-50.38,2.55-5.92,1.36-12.73-.38-18.89-3.28-11.57,1.74-21.74,4.11-35.04,3.92,7.61,1.21,12.74.8,17.66-.43,5.15-1.95,10.41.09,15.29,4.99,11.9,2.45,23.18-1.9,34.44-2.19,5.67-5.43,11.14-6.49,17.01-2.79,15.46-10.26,31.24-7.01,46.37,4.51,21-2.04,37.39-12.87,53.71-.5.76-1.23,1.6-1.24,2.41-.11,20.04-17.49,29.88-26.67,44.48-9.27,14.74-23.76,25.74-30.91,42.38-3.13,7.29-11.86,9.89-17.36,15.63-6.54,6.83-11.34,14.16-13.92,23.1-2.79,9.63-4.96,19.45-10.01,28.3-.85,1.5-1.49,3.63-1.13,5.22,1.63,7.2,1.57,13.37-5.68,18.02-1.91,1.22-4.03,5.33-1.27,8.12,3.05,3.08,6.96,4.83,11.61,3.81,2.38-.53,3.35-3.65,6.86-3.21-.51,5.02-.37,9.7-4.89,13.72-7.3,6.5-10.88,15.04-11.23,24.95-.19,5.19-2.35,8.97-7.68,11.22-11.33,4.79-13.17,8.32-12.26,21.37.21,3.04-1.87,4.31-3.52,5.95-5.38,5.36-10.97,10.5-16.26,15.95-9.89,10.19-12.04,23.74-16.1,37.25,11.79-3.32,20.27-10.61,28.69-17.87,3.5-3.02,7.03-5.97,11.4-7.4,10.94-3.57,22.03-6.82,32.26-12.17,18.4-9.64,38.75-5.57,58.06-8.69,2.99-.48,6.18-.3,8.99-1.25,7.57-2.54,14.29-2.62,21.62,1.87,5.98,3.66,13.06,3.43,20.18.49,6.67-2.75,14.05-3.74,21.07-5.66,3.81-1.04,6-2.73,2.94-7.07-5.32-7.57-8.55-16.2-10.22-25.19-2.7-14.51-10.06-25.42-23.72-32.23,4.01-3.1,6.31-.87,8.68.91,10.27,7.71,18.42,16.63,19.8,30.34.47,4.72,2.56,9.38,4.42,13.86,6.66,16.08,16.7,17.9,29.08,5.13,3.41-3.51,7.21-6.5,10.73-9.82,7.81-7.39,17.06-8.6,27.12-7.63,4.52.44,9.09.9,13.61.7,7.26-.32,13.5-2.41,16.99-9.92,1.46-3.16,4.37-5.93,7.22-8.1,8.37-6.35,15.56-13.54,19.93-23.3.9-2,1.96-4.52,5.89-4.4-5.29,10.13-8.51,20.91-18.69,27.33-6.01,3.79-10.65,8.96-13.34,15.76-2.17,5.46-6.49,7.68-12.29,7.56-5.47-.11-11.07.83-16.4-.02-17.11-2.71-28.29,6.27-37.93,18.43-1.41,1.78-2.53,3.26-4.86,3.5-1.2.12-3.14.07-3.47.73-6.6,13.37-22.18,6.13-31.25,13.71-.88.73-2.03,1.14-3.84,2.14,7.06,3.23,13.84,4.76,20.57,5.32,16.1,1.33,31.17,8.06,47.38,8.54,2.51.08,4.53,1.41,6.54,2.91,8.21,6.13,11.82,5.67,18.23-2.21,11.29-13.88,22.58-27.5,29.36-44.65,4.32-10.91,14.04-18.99,22.28-27.39,6.62-6.75,9.26-12.35,1.9-19.83-1.15-1.17-2.33-2.89-1-5.21,5.44,1.63,6.12,11.66,12.78,9.13,4.98-1.89,5.12-9.25,8.33-13.64,1.07-1.47,1.97-3.1,3.23-4.38,1.27-1.28,3.08-2.55,4.78-1.02,1.89,1.71.28,3.37-.94,4.65-3.98,4.17-7.77,7.79-5.97,14.91.83,3.3-4.58,5.87-7.28,8.7-11.73,12.3-23.45,24.65-30.5,40.45-.87,1.96-3.37,4.59-.84,6.59,2.24,1.77,4.58-.56,6.54-1.77,6.21-3.83,12.22-7.98,18.46-11.76,10.14-6.15,20.46-11.64,32.42-14,8.94-1.76,17.05-6.36,24.48-11.8,5.31-3.89,9.36-8.26,9.49-15.62.09-5.27,2.91-9.58,8.44-11.85.94,3.59-2.23,4.46-3.07,6.57-1.37,3.46-3.04,7.57.96,9.63,3.32,1.71,6.36-1.22,8.02-4.31,2.84-5.29,4.92-11.07,10.71-15.57.07,5.71-4.94,8.84-4.64,13.83,2.33,2.94,5.77-1.51,8.65,1.67-3.29,4.38-9.17,4.41-13.55,6.57-13.97,6.87-24.4,19.36-39.43,24.29-22.18,7.29-41.92,19.15-61.14,32.1-13.45,9.06-25.01,19.65-34.78,32.89-11.75,15.93-28.92,25.07-46.93,33.26-22.79,10.36-46.99,18.67-65.26,37.19-2.29,2.32-5.52,3.72-7.18,7.26,11.2-2.49,22.16-2.67,32.17-5.61,9.53-2.79,19.09-3.02,28.57-4.76,2.56-.47,5.42-.33,6.78,1.67,11.54,16.98,28.79,15.94,44.9,12,20.85-5.1,40.75-13.75,60.9-21.43,22.59-8.61,46.39-14.06,69.68-20.81,3.84-1.11,7.75-.99,11.75-.46,12.43,1.65,24.09.08,34.6-7.75,6.17-4.6,13.38-6.9,24.1-5.23-9.39,4.34-18.45,3.09-24.12,9.43-4.12,4.61-9.64,6.1-15.37,7.21-.6.12-1.21.35-1.79.31-31.96-2.2-59.97,13.07-89.74,20.5-6.98,1.74-13.71,4.95-20.18,8.24-16.09,8.18-33.89,11.42-50.53,18.04-10.39,4.13-21.01.27-31.27-2.62-4.38-1.23-8.66-2.85-13.01-4.18-22.61-6.94-44.07-2.71-65.27,6.17-6.32,2.65-11.24,6.1-13.51,12.5-2.13,6-7.63,10.23-8.86,16.71,3.15,2.62,8.54-2.53,10.66,4.33.89,2.89,6.71.28,10.01-.72,16.32-4.93,30.51,1.46,44.71,7.99.81.37,1.48,1.06,2.22,1.59,10.34,7.46,20.44,15.49,34.66,10.94,2.17-.69,4.76-.1,8.45-.1-4.33,5.15-9.42,4.16-14.59,4.96,1.9,5.47,6.25,7.01,10.28,8.46,11.61,4.16,22.07,9.73,30.29,19.39,4.52,5.31,12.15,4.89,18.35,7.14,3.6,1.31,7.88.79,10.78,3.73.14,2.13-1.44,2.24-2.4,1.96-14.89-4.35-31.73-4.41-41.92-19.27-1.37-2-4.52-2.89-6.98-3.99-3.88-1.74-8.65-2.34-11.68-4.98-9.06-7.92-17.65-7.31-27.57-1.57-18.9,10.94-36.47,3.19-53.55-5.38-6.8-3.41-13.6-6.69-20.6-9.68-8.86-3.78-14.52-1.11-18.63,6.97-3.73,7.32-7.63,14.54-11.41,21.83-3.78,7.29-9.57,13.8-12.52,21.07-10.62,26.19-36.56,39.33-50.91,62.12-2.78,4.41-7.56,6.11-12.23,7.43-9.72,2.73-18.23,7.72-23.92,15.83-7.32,10.43-17.92,15.95-28.28,22.21-13.07,7.9-16.51,22.16-21.16,35.11-3.9,10.87-3.92,22.76-4.16,34.26-.82,40.11-.35,80.21,1.65,120.29.29,5.77,1.96,9.71,7.33,12.36,19.09,9.45,27.12,28.87,38.57,44.83,7.42,10.34,4.39,14.73-6.4,22.17-10.86,7.48-22.53,11.28-35.72,11.96-23.99,1.24-47.88,3.2-71.55-3.4-13.75-3.84-27.78-6.68-41.75-9.69-6.38-1.37-11.92-4.33-17.56-7.38-6.39-3.46-6.86-8.76-5.44-14.82,1.5-6.4,5.97-7.61,11.87-6.83,3.89.52,7.91.49,11.84.28,14.94-.77,18.41-4.83,21.12-19.54,2.62-14.27,4.55-28.68,10.17-42.41,7.81-19.08,6.66-40.02,10.36-60.01,5.05-27.31,4.82-55.11,1.05-82.66-1.67-12.15-5.73-23.59-16.3-31.57-5.55-4.19-3.34-9.97-1.59-15.11,1.59-4.67,3.78-9.06,10.2-8.44,9.12.87,12.36-4.48,12.92-12.65,1.3-18.77-2.49-36.92-6.39-55.07-.96-4.47-3.68-6.66-8.13-7.32-2.35-.35-4.69-1.2-6.87-2.2-1.57-.72-3.55-1.84-2.63-4.08.88-2.13,2.9-1.52,4.73-1.31,12.88,1.53,16.13-1.57,14.61-14.66-1-8.62-.39-17.51-6.26-25.24-5.17-6.81-11.06-11.37-19.27-14.28-18.47-6.53-36.89-10.09-56.8-10.29-14.73-.14-29.76-4.76-44.67-7.36-6.13-1.07-11.91-2.55-16.66,3.37-1.76,2.19-4.84,2.74-7.61,2.1-9.41-2.15-18.77-4.49-28.15-6.77Zm502.48-133.93c-14.62-2.87-27.86-6.08-41.29-7.88-9.37-1.25-18.55-.15-25.56,8.31-3.84,4.63-10.05,6.34-15.94,8.29-13.2,4.35-26.27,9.21-39.08,14.62-3.53,1.49-10.59,4.58-8.13,8.42,2.84,4.42,7.1-1.73,10.48-3.71,12.86-7.55,24.55-6.55,32.15,3.5-2.82-.62-5.51-.55-7.39-1.74-8.34-5.3-16.28-2.63-23.01,2.16-6.31,4.49-11.49,8.86-19.19,3.08-2.2-1.66-4.62.45-6.77,1.5-28.07,13.68-55.21,29.03-81.77,45.41-1.7,1.05-3.12,2.88-4.13,4.66-4.04,7.1-7.92,14.3-11.77,21.51-10.72,20.1-21.91,39.95-30.82,60.96-.84,1.97-2.02,4.18-.62,6.04,1.76,2.35,3.93.34,5.71-.43,6.83-2.94,14.31-4.21,21.35-4.1,9.06.14,19.53-1.86,26.76,5.26,3.87,3.81,6.02,3.46,9.84,1.34,2.34-1.29,5.15-2.43,7.75-2.43,15.82.04,29.08-10.53,44.83-10.63,1.1,0,2.34-.75,3.27-1.46,10.37-7.93,22.35-10.57,35.08-10.89,3.07-.08,5.84-.48,7.68-3.74,8.63-15.28,17.26-30.56,26.29-45.6,7.52-12.52,14.78-26.57,26.91-34.08,18.96-11.73,28.9-27.39,32.22-48.62.89-5.69,4.09-9.98,10.72-10.72,5.73-.63,9.29-4.94,14.41-9.02Zm-257.26,272.36c-.65,6.1,0,11.96,5.37,14.86,6.01,3.24,10.61-1.69,14.2-5.41,9.49-9.82,20.88-17.66,29.34-28.5,1.86-2.39,4.44-3.11,7.16-3.51,10.94-1.62,18.65-8.32,25.7-16.12,6.11-6.76,11.34-14.26,18.18-20.42,13.83-12.46,26.53-25.83,32.39-44.17.7-2.19,3.73-4.13,1.95-6.51-2.14-2.86-5.48-1.89-8.43-.95-2.88.92-6.54,1.27-7.98,3.98-3.55,6.66-9.96,7.4-16.13,8.8-9.29,2.1-19.63,1.1-26.59,9.94-1.09,1.39-4.6.81-6.96,1.28-7.68,1.5-15.67,1.33-22.59,6.22-16.5,11.67-20.58,29.65-23.57,47.61-1.31,7.88-3.42,13.21-10.98,15.77-8.42,2.85-12.18,8.64-11.06,17.14Zm-87.79-444.53c-8.48-11.66-14.29-22.54-23.3-31.19-6.57-6.31-13.22-12.41-16.09-21.61-1.88-6.01-6.78-9.54-12.88-10.23-18.13-2.06-34.07-10.15-50.52-17.1-6.89-2.91-14.59-3.94-21.98-5.59-1.6-.36-3.86-.7-4.84,1.34-.76,1.58.62,2.81,1.51,3.99,7.37,9.75,15.64,17.93,27.05,23.61,14.53,7.24,28.5,15.96,41.73,25.42,17.73,12.67,33.82,27.97,59.31,31.36Zm58.3,167.44c-.73,5.48,1.63,12.55,2.18,19.78.36,4.75,3.87,6.25,7.86,4.9,6.02-2.03,10.66-5.85,10.62-12.93-.01-1.82-.48-3.42.77-5.07,8.54-11.26,10.93-24.92,13.62-38.14,2.07-10.22,6.86-20.34,4.06-31.22-.97-3.78-1.82-8.68-5.74-9.75-3.57-.98-4.57,4.08-6.9,6.26-2.2,2.06-4.5,4.03-6.85,5.91-5.56,4.45-10.71,9.69-12.23,16.55-3.07,13.8-7.31,27.47-7.38,43.72Zm150.04-7.8c-18.43,3.65-34.02,13.78-51.64,18.47-2.19.58-4.01,2.65-5.95,4.11-8.45,6.35-16.14,14.32-25.51,18.66-9.83,4.56-12.04,10.17-10.37,19.92.97,5.66,3.11,7.38,7.58,4.45,15.12-9.91,33.8-10.84,48.06-25.68,12.61-13.13,23.27-28.5,37.83-39.93Zm53.72,156.75c10.63,4.39,20.6,8.37,30.16,13.28,17.05,8.75,35.1,16.07,54.4,5.02,1.8-1.03,4.49-1.17,4.97-3.45.69-3.28-2.66-3.48-4.52-4.73-5.04-3.36-10.43-6.28-15.11-10.07-10.45-8.45-23.56-4.06-34.94-7.77-.48-.16-1.19.22-1.73.48-6.26,2.98-12.96,2.79-19.63,2.72-4.57-.05-8.92.44-13.6,4.54Zm-191.02,50.66c2.8,13.16,2.48,27.16,10.03,39.16,1.46,2.32,3,4.86,6.29,4.28,2.71-.48,3.59-2.89,4.55-5.18,5.99-14.38,8.95-29.98,18.93-42.78,4.19-5.37,1.32-9.73-5.55-10.51-8.57-.97-16.94.97-25.05,3.12-5.22,1.39-10.02,4.84-9.2,11.91Zm210.28-207.86c-8.63-1.82-14.28-7.89-22.3-5.4-11.99,3.73-24.45,4.23-36.85,4.78-4.51.2-8.51,1.27-11.58,4.4-5.7,5.82-11.12,11.9-16.61,17.92-1.2,1.31-2.82,2.79-1.86,4.74.99,1.99,3.18,1.38,4.89,1.22,2.4-.22,4.77-.78,7.15-1.21,16.75-3.02,32.73-9.02,49.25-12.9,9.71-2.28,18.02-6.85,27.9-13.56Zm106.8,25.39c-7.07-.08-8.57-5.83-13.6-6.34-4.81-.49-9.81-.9-14.27-2.56-6.92-2.58-13.38-3.13-18.04,3.15-4.18,5.63-12.93,5.06-15.56,11.76-2.63,6.73-4.13,13.9-6.03,20.9-1.7,6.29,1.03,7.17,6.11,4.76,9.86-4.66,19.61-9.53,29.54-14.04,10.2-4.64,20.37-9.29,31.85-17.64Zm-264.68-33.21c8.14-4.94,15.84-8.61,17.71-18.7,1.84-9.93,5.94-18.56,16.41-22.34,3.35-1.21,3.73-4.27,4.74-7.2,2.81-8.16,2.48-17.59,9.71-24.04,2.51-2.24,1.24-4.18-1.15-5.85-4.89-3.42-8.19-4.09-12.34,2.15-15.22,22.89-21.85,49.89-35.85,73.3-.1.17.14.54.77,2.68Zm-124.05-279.81c5.94,18.24,15.32,32.98,22.98,48.57,7.81,15.88,12.73,33.06,18.32,49.86-4.54-35.87-3.89-73.83-41.3-98.44Zm99.39,204.16c1.17,3.5,2.74,8.4,4.45,13.25,1,2.84,1.8,6.03,5.61,6.37,4,.36,6.13-2.29,7.7-5.35,3.33-6.48,6.42-13.08,9.72-19.58q5.92-11.66-6.95-13.74c-7.73-1.26-20.45,9.6-20.54,19.04Zm50.11-66.48c-11.97,15.47-27.16,27.72-40.59,44.03,5.91-.91,9.38-1.14,13.04-.16,8.1,2.18,13.73-.48,17.51-8.52,5.29-11.24,10.45-22.37,10.04-35.36Zm-58.94,187.64c-4.51,5.92-8.55,11.15-12.49,16.45-3.86,5.2-6.46,10.9-6.19,17.56.1,2.42.15,4.97,2.92,6.09,2.04.82,18.64-4.91,18.98-6.96,1.83-11.01,6.76-22.39-3.22-33.14Zm-3.35-114.84c-.04-3.15-.68-6.22-3.51-7.96-2.95-1.81-5.03.83-7.36,2.09-12.37,6.65-16.65,17.79-17.3,30.97-.09,1.79-.51,3.9,1.38,4.93,2.19,1.2,4.17-.03,5.75-1.52,5.07-4.77,10.16-9.54,15.05-14.5,3.77-3.83,5.42-8.71,5.99-14.01Zm-53.5-268.74c-.76,0-1.52,0-2.29,0,.85,6.85-1.27,13.13-3.16,19.41-2.81,9.37-1.43,18.68.04,27.98.44,2.79,2.73,7.99,5.02,4.16,4.03-6.74,10.83-13.54,9.23-22.1-1.88-10.02-5.8-19.65-8.84-29.44Zm156.48,103.26c-11.09,2.08-18.04,7.59-25.62,11.52-9.67,5.01-11.43,12.11-6.43,23.05,12.12-8.99,22.19-19.88,32.06-34.57Zm-128.24,123.05c-1.49,8.07-3.08,15.1-3.99,22.21-.63,4.91-3.22,11.5,1.57,14.38,5.18,3.12,7.63-4.26,11.57-6.55,1.56-.9,2.92-2.15,4.37-3.26,1.37-1.05,2.08-2.61.96-3.93-5.64-6.69-6-16.66-14.48-22.86Zm68.17,54.58c12.11-18.47,27.18-35.69,27.22-61.37-11.43,20.67-21.74,39.92-27.22,61.37Zm-39.28,154.36c-.92-1.88,4.04-5.97-.07-7.75-3.56-1.55-7.84.68-11,3.09-6.12,4.66-7.84,11.51-7.4,18.69.31,4.95,4.32,5.58,8.19,4.15,7.79-2.88,11.61-8.53,10.28-18.18Zm-243.21-.53c-14.26-4.42-26.54-7.02-39.69-4.07-12.66,2.84-25.44,5.59-38.65,4.22-3.83-.4-7.6.53-11.17,4.45,15.75,1.55,29.76-.74,43.85-5,14.34-4.33,29.06,3.74,45.66.4Zm260.36-103.87c4.19-15.33,20.01-25.85,18.72-44.57-16.33,11.45-18.95,27.42-18.72,44.57Zm-63.68-280.68c-3.59,9.4-6.7,18.51-3.93,28.34.68,2.41,1.5,4.75,4.59,4.71,2.22-.03,4.38-.83,5.22-2.96,2.1-5.32,4.63-10.8.86-16.36-2.86-4.23-5.1-8.69-6.74-13.72Z"/></g></svg>