<?xml version="1.0" encoding="UTF-8"?><svg id="Layer_2" xmlns="http://www.w3.org/2000/svg" viewBox="0 0 1472.09 1242.44"><defs><style>.cls-1{fill:#252525;}</style></defs><g id="Layer_1-2"><path class="cls-1" d="m68.03,1016.97c3.69-13.4,5.98-25.14,6.73-37.09.23-3.72,3.17-11.12-6.15-5.81-2.26,1.29-5.88.19-9.64-.51,9.97-3.55,13.83-11.52,16.71-20.46,1.72-5.32-.48-6.68-5.19-6.79-4.29-.11-7.73,1.73-11.04,4.11-6.42,4.62-12.88,9.2-20.03,12.97,1.76-5.22,6.77-7.27,10.08-10.89,1.58-1.73,4.52-2.96,3.52-5.9-.83-2.42-3.61-2.03-5.64-2.42-12.29-2.38-24.54-1.73-36.78.59-3.11.59-6.33,2.56-10.61-.49,16.2-6.19,32.27-8.95,48.39-6.61,12.47,1.81,21.37-1.77,29.73-10.3,4.84-4.94,3.39-6.37-2.2-8.54-19.16-7.43-37.38-17.35-57.98-21.32,6.08-2.71,11.78,0,17.51.65,4.27.48,8.4,2.07,12.66,2.69,4.76.69,16.52-6.99,15.74-10.72-1.38-6.56-7.8-4.57-12.11-4.79-10.61-.53-21.27-.17-31.98-1.74,12.19-2.6,24.45-6.24,36.75-3.66,11.99,2.52,19.79-.68,24.13-12.05,2.13-5.58,10.57-8.78,9.42-13.9-1.28-5.74-10.16-3.63-15.15-6.85-12.67-8.18-27.13-11.54-41.85-13.79-1.75-.27-3.65-.15-6.5-3.86,13.48.63,25,2.23,36.28,5.21,7.12,1.88,13.85,5.18,20.92,7.27,17.01,5.03,33.56-.59,50.36-2.16,14.18-1.32,26.96-4.77,38.32-13.48,3.08-2.36,6.12-3.84,4.52-8.71-1.52-4.61-4.42-4.71-8.53-4.71-11.88,0-22.24,3.7-31.57,11.22,4.55-10.12,13.43-14.17,23.1-16.72,6.31-1.66,15.15.22,16.47-8.66,1.66-11.19,3.26-23.48-7.3-31.73-10.43-8.14-21.76-15.13-32.61-22.74-4.03-2.83-8.19-5.63-11.66-9.09-6.3-6.27-12.8-5.03-19.31-1.11-5.9,3.55-10.06,8.98-14.13,14.47-9.1,12.28-20.41,22.24-33.18,30.56-1.2.78-2.47,1.97-6.03-.67,24.92-11.57,31.91-39.55,53.93-53.65-21.19-10.16-41.22-22.3-63.83-28.88,7.17-1.44,15.92.13,31.32,6.7,19.63,8.37,39.2,16.46,60.81,18.28,13.26,1.11,26.5,1.45,39.75.51,7.83-.55,13.23-6.34,19.22-10.5,6.11-4.25,11.98-8.76,19.44-10.33,5.3-1.11,5.56-3.14,2.33-7.35-14.58-19.02-21.02-43.38-40.11-59.47,7.04,1.82,16.08,10.52,25.13,21.7,8.16,10.08,13.33,22.19,22.44,31.66,9,9.35,10.37,9.75,22.04,4.07,9.14-4.45,18.51-8.49,28-12.13,5.05-1.93,4.77-3.22,1.2-6.62-11.86-11.26-23.47-22.78-35.06-34.32-2.07-2.06-5.03-3.6-5.57-7.69,4.15.7,6.57,3.54,9.35,5.66,14.46,11.05,28.98,22.02,43.28,33.28,4.26,3.36,7.68,3,11.36-.47,7.43-7.01,15.05-13.68,25.17-16.7,3.83-1.14,3.86-3.27.92-5.93-5.57-5.03-12.01-8.52-18.72-11.76-8.12-3.92-16.87-6.92-22.9-14.7,6.22,2.36,12.58,4.42,18.62,7.17,5.5,2.5,9.9.29,13.53-2.96,3.51-3.15.41-7.06-1.09-10.16-2.35-4.84-3.08-11.97-9.14-13.07-9.01-1.65-18.83-3.16-27.33.87-6.98,3.31-7.01,10.41-3.12,16.82,4.79,7.91,9.98,15.59,14.84,23.47,1.36,2.2,3.75,4.17,2.44,8.74-9.01-10.59-18.43-19.88-25.54-30.69-4.09-6.22-8.11-6.79-14.3-6.75-21.87.15-43.74-.2-65.61-.42-.74,0-1.47-.63-3.54-1.57,10.31-3.36,19.73-3.88,29.12-4.41,12.92-.73,25.85-.04,38.8-1.58,10.51-1.25,16.72-6.97,21.54-15.38.89-1.55,2.34-3.32.93-5.04-1.46-1.77-3.4-.24-5.16-.01-2.87.38-5.66,2.64-9.39.21,6.21-3.37,12.17-6.27,17.76-9.77,3.27-2.04,8.5-5.18,6.58-8.79-2.04-3.84-7.74-1.84-11.82-.61-10.63,3.2-21.18,6.66-31.85,9.71-4.68,1.34-9.58,1.92-14.68,1.95,11.76-5.66,25.01-7.51,37.08-14.06-21.74-7.15-48.17.52-61.75,16.77-9.72,11.63-21.72,20.51-36.28,26.08,21.72-11.25,30.57-35.19,49.75-48.96-19.99-12.79-30.16-36.7-53.29-45.96,12.54,3.89,23.69,9.88,33.3,18.51,3.2,2.88,5.99,6.22,9,9.31,5.53,5.67,11.01,8.73,20.17,7.52,11.72-1.55,23.89,1.28,35.91-.68,6.98-1.14,14.09-1.48,21.14-2.25,8.01-.87,9.62-4.13,4.56-10.71-3.54-4.6-8.09-8.43-12.27-12.52-1.92-1.88-4.81-2.82-5.77-6.67,6.47,1.84,10.4,6.97,18,10.72-3.6-11.75-8.1-20.87-15.25-28.18-4.83-4.94-17.34,1.3-20.44,10.06-3.49,9.86-9.14,17.95-17.94,24.05,9.22-10.09,10.39-24.21,18.23-34.86,3.44-4.68.17-4.89-2.69-6.03-18.91-7.59-34.38-21.43-53.25-29.27,11.93,1.71,22.4,6.97,32.58,12.77,9.69,5.53,19.36,10.8,30.65,12.47,8.93,1.32,17.86.83,26.79.92,5.55.06,6.82-2.52,5.44-7.72-2.12-7.99-6.59-13.02-14.99-14.27-9.39-1.41-17.74-5.15-24.79-11.57-1.45-1.32-3.84-2.29-2.29-6.61,11.07,12.66,27.98,7.52,40.71,15.13,3.18,1.9,4.31-.09,4.97-2.98,3.59-15.72,10.22-30.38,15.94-45.35,2.65-6.94.6-10.05-6.74-11.5-20.29-4.02-41.24-3.36-61.29-8.9-2.24-.62-4.85-.26-6.75-2.82,1.27-.55,2.13-1.31,2.81-1.17,22.2,4.76,44.95,1.56,67.26,4.7,2.19.31,5.27,2.17,6.38-1.3,1.14-3.54-.92-5.99-4.29-7.02-24.74-7.55-48.56-18.5-74.53-21.48-13.55-1.56-25.86,4.87-38.48,8.73-11.14,3.41-22.24,6.98-34.39,8.16,1.52-3.64,4.63-3.6,7.01-4.11,19.98-4.29,37.8-15.18,57.98-18.8,3.64-.65,4.51-1.97,2.11-5.57-7.58-11.4-11.77-25.11-23.79-33.54,10.31,3.97,17.51,11.15,22.29,20.51,4.78,9.34,12,15.58,21.75,18.84,20.18,6.74,40.46,13.18,60.65,19.89,5.07,1.68,7.67.43,8.06-5.09.22-3.16-.66-6.62,1.96-10.31,3.36,4.23,3.2,8.77,3.41,12.71.35,6.65,3.68,9.76,9.5,11.97,10.03,3.8,19.84,8.21,30.26,12.59,1.28-5.07-3.5-7.72-4.05-10.24-2.45-11.35-9.48-20.91-11.48-32.08-1.14-6.4-3.58-7.73-9.76-7.62-21.51.38-42.88-3.24-64.51-3.12,19.88-4.52,40.12-2.13,60.61-3.58-11.19-8.46-23.13-15.76-30.25-28.62,2.8,2.09,5.81,3.96,8.38,6.31,9.57,8.75,21.49,13.15,33.06,18.22,6.27,2.75,10.08-1.9,13.62-5.34,4.09-3.99,10.79-10.11,9.83-13.4-1.56-5.33-9.7-6.32-15.72-7.49-29.37-5.71-58.76-11.25-88.9-10.51-4.73.12-9.46.02-16.6.02,5.74-4.09,10.42-1.69,13.91-5.15-15.02-5.24-30.56-5.79-45.84-8.17,12.69-3.82,25.31-1.48,37.79.27,24.73,3.46,49.37,7.55,74.06,11.33,6.52,1,20.83-8.23,22.66-14.42.86-2.9-1.16-4.7-2.58-6.57-6-7.88-12.9-14.98-20.39-21.41-5.69-4.88-11.93-5.52-18.82-1.62-6.83,3.86-13.81,7.83-22.63,6.49,10.18-3.46,17.63-11.44,27.55-15.2,1.86-.71,4.92.31,5.16-2.65.21-2.54-1.56-4.84-3.58-6.18-3.27-2.17-6.91-3.8-10.46-5.7,1.29-2.95,9.22,1.77,5.72-4.81-3.06-5.74-.61-16.1-11.63-15.9-3.57.06-6.43,3.54-10.44,2.94.22-.71.28-1.3.56-1.75,2.8-4.58,12.83-2.68,10.73-11.5-3.01-12.66-10.34-19.21-22.1-20.42-12.81-1.31-25.21.66-37.35,4.72-1.7.57-3.43,1.07-5.5.57,9.02-5.95,19.15-8.69,29.86-9.93,5.44-.63,12.87,2.44,15.8-1.58,2.64-3.62-3.61-8.93-5.02-13.89-1.34-4.74-1.8-9.3-.66-14.67,3.29,2.62,3.05,5.58,3.39,8.19,1.44,11.09,8.39,18.48,17.04,24.18,9.52,6.27,19.61,11.66,29.48,17.4,1.56.91,3.3,2.35,5.11,1.22,1.89-1.18.96-3.28.8-5.08-.46-5.21-2.24-9.38-7.29-11.99-4.24-2.19-8.47-4.64-10.74-9.81,4.17,2.26,8.56,4.2,12.47,6.86,6.89,4.68,7.15-2.47,11.14-7.33-1.58,9.88,1.35,14.61,9.28,17.23,7.18,2.38,13.22,3.4,20-1.08,8.48-5.59,17.48-10.4,26.38-15.32,5.68-3.14,6.68-7.17,4.2-13.06-5.17-12.24-11.95-23.61-18.05-35.47,8.34,6.58,13.03,15.98,18.35,24.78,7.98,13.22,7.75,13.34,22.13,8.81,2.32-.73,4.68-1.34,7.88-2.25-17.29-19.39-19.46-47.19-41.16-64.37,4.37-1.17,5.43,1.05,6.72,2.32,10.47,10.27,19.03,21.95,24.39,35.64,5.74,14.67,16.07,24.74,30.06,31.06,16.86,7.62,33.95,14.75,51.01,21.91,7.71,3.23,15.09,7,22.15,11.47,2.07,1.31,3.87,5.38,6.85,2.39,2.92-2.93,2.69-6.63-.21-9.98-8.06-9.35-17.91-15.9-29.67-19.69-16.18-5.22-31.56-12.12-46.79-22.34,3.69-1.35,5.61.24,7.48,1.21,17.09,8.97,35.48,14.14,54.12,18.5,2.87.67,6.71,2.41,8.86.26,2.65-2.65-1.03-5.51-1.9-8.26-4.08-12.93-10.69-24.76-15.95-37.29,7.9,9.19,13.77,19.62,18.75,30.6,4.1,9.05,4.38,8.98,11.63,2.2,5.34-4.99,5.69-11.38,6.11-17.84,1.18-17.93-1.14-35.68-2.42-53.52-.96-13.31-1.19-26.72-1.44-40.16,6.1,31.22,14.68,62.1,10.47,96.19,2.67-3.57,4.45-5.95,6.34-8.47,2.32,2.18.81,4.39-.07,5.82-6.63,10.87-8.03,23.05-9.97,35.26-1.03,6.46-.3,11.25,4.46,15.8,12.08,11.54,24.32,22.89,39.39,30.46,8.99,4.51,16.9,10.04,23.14,20.05,6.73-18.17,22.2-28.66,31.18-44.08,3.49-5.98,4.86-11.4,3.23-18.32-6.34-26.87-.58-51.99,12.24-75.84,2.37-4.41,5.73-8.54,10.35-10.29,13.43-5.11,25.16-12.84,36.48-21.63-5.15,8.77-12.56,15.97-21.41,19.68-22.61,9.48-27.66,29.28-31.53,49.86-2.15,11.4-2.84,23.12.89,35.38,13.15-11.18,25-22.2,24.15-41.27,2.85,4.19.89,7.89.61,11.52-.47,6.08.76,9.13,8.15,8.04,14.67-2.17,29.46-3.45,43.6-8.97-1.8,3.61-5.31,4.49-8.4,5.79-3.11,1.32-6.37,2.37-9.66,3.16-5.13,1.24-7.6,3.08-4.6,8.91,3.12,6.08,3.69,12.96,3.91,19.8.43,13.55,3.56,16.3,17.08,14.56,5.8-.74,11.51-2.19,17.23-3.41,4.59-.98,8.51-2.6,5.67-9.16,10.1,6.05,12.93-1.65,15.45-7.32,4.99-11.22,11.53-21.09,20.9-29.01,2.96-2.5,6.21-4.65,9.32-6.96.71.76,1.42,1.51,2.13,2.27-3.75,3.34-7.53,6.64-11.23,10.04-6.25,5.73-11.01,12.51-13.68,20.6-2.07,6.26-4.99,11.95-9.97,16.4-3.6,3.22-4.23,6.02.98,8.14,8.5,3.45,15.34,9.08,21.16,16.04,4.23,5.06,6.72,3.85,10.33-1.37,19.11-27.72,29.62-59.53,44.11-89.44,8.75-18.06,2.49-32.9-1.83-48.75-3.77-13.83-12.5-24.43-25.48-31.52-13.83-7.55-25.96-17.51-36.72-29.26,11.34,6.68,21.17,15.82,33.02,21.48,12.2,5.83,23.09,12.86,30.69,26.57,4.19-14.5,13.48-22.19,24.84-28.49,8.63-4.79,15.68-11.92,21.9-19.71,2.01-2.52,3.55-5.72,8.31-6.92-7.67,14-18.01,24.22-30.1,32.72-18.01,12.65-21.55,21.24-16.78,42.39.93,4.14,1.92,8.27,3.41,14.64,4.16-7.07,7.28-12.36,10.39-17.65.86.14,1.72.28,2.58.43-9.46,16.25-14.16,32.36.79,48.34.67.06.54-8.71,3.88-1.85,4.36,8.96,14.19,9.21,21.1,14.05,3.8,2.67,5.7-2.05,7.74-4.54,12.68-15.53,25.33-31.07,37.96-46.64.91-1.13,1.58-2.46,3.27-2.87-7.97,16.87-19.74,31.03-30.94,47.55,8.49-2.27,13.89-7.12,19.72-11,4.87-3.24,9.47-6.91,14.05-10.56,12.59-10.05,12.61-10.58,5.03-24.44-1.88-3.44-3.27-7.14-3.18-11.71,3.12,4.87,6.14,9.81,9.38,14.6,2.56,3.78,4.85,4.24,7.22-.55,3.08-6.21,4.25-12.82,5.34-19.54,2.67-16.49,8.44-31.85,16.88-46.26-2.6,12.9-8.49,24.86-10.08,38-1.37,11.31-2.29,22.73-7.71,33.15-2.35,4.5.18,5.28,4.21,4.77,2.72-.34,5.57-.48,8.27-.1,11.89,1.69,13.28.59,14.29-11.93.2-2.46.43-4.92.85-7.34.31-1.79.94-3.53,1.45-5.36,2.52.41,1.69,2.24,1.9,3.45.25,1.48.28,2.99.54,6.09,7.93-9.97,10.11-21.33,16.56-30.45-1.53,13.09-6.99,24.98-13.18,36.2-5.64,10.21-6.52,14.97,10.16,15.62,3.58.14,7.18-2.18,11.56.49-5.98,3.79-12.13,2.11-17.83,2.32-6.47.24-8.28,2.81-6.28,8.75,4.04,12.02,3.86,24.09-.38,36.9,26.53-9.12,51.26,6.48,78.78,1.17-3.53,5.54-6.88,4.63-9.66,4.73-14.2.53-28.3-.03-42.41-2.37-14.41-2.39-26.6,3.43-37.07,12.95-3.7,3.36-3.44,15.08-.27,18.97,1.78,2.17,3.07,1.06,4.61-.12,1.91-1.45,3.22-3.83,6.82-4.04.06,4.59-9.19,8.88-.78,13.69,4.25,2.43,7.11,2.79,10-1.69,3.47-5.38,6.7-11.04,13.29-14.32-2.33,3.9-4.97,7.65-6.91,11.74-1.7,3.59-7.42,7.26-3.32,11.19,4.22,4.04,9.81,7.67,16.67,6.03,4.8-1.15,9.8-1.78,14.36-3.55,21.1-8.19,43.88-9.69,65.3-16.6,4.5-1.45,8.56-3.44,12.16-6.42,4.97-4.12,7.04-8.68,4.45-15.41-5.95-15.52-6.71-31.64-3.19-48.13,2.3,14.1.73,28.94,8.11,43.95,4.29-16.95,9.82-31.6,20.75-43.69-2.99,6.9-6.18,13.72-8.93,20.72-6.48,16.5-8.17,33.33-3.49,50.71,1.45,5.37,3.74,7.87,9.03,5.12,9.36-4.85,19.4-5.39,29.64-5.9,12.96-.64,25.39-4.59,40.31-8.42-3.59,4.29-6.75,4.94-9.56,5.99-14.24,5.34-29.08,8.14-44.09,10.22-2.14.3-4.34.39-6.39.98-11.39,3.27-11.99,5.8-3.96,14.57,6.26,6.84,13.81,12.2,22.09,19-12.28,5.92-23.97,5.56-35.66,3.34-17.01-3.23-16.82-3.36-25.38,11.36-7.94,13.65-13.5,28.42-20.61,42.44-2.21,4.35-.87,6.04,3.45,7.03,11.53,2.66,23.2,3.24,34.95,2.69,5.96-.28,6.65-3.37,4.06-8.05-2.64-4.77-5.03-9.58-1.51-15.41,1.27,9.44,11.81,14.19,11.36,24.35-.08,1.74,1.23,2.66,2.81,3.22,8.57,3.05,15.82,8.24,22.75,13.97,4.38,3.62,5.76,1.79,5.67-3.06-.2-10.8-.36-21.59-.43-32.39-.03-5.2.46-10.31,5.28-14.21-2.58,15.82.5,31.07,2.92,46.43,1.16,7.34,2.55,10.76,11.58,8.24,18.57-5.2,35.62-13.84,53.3-21.04,9.95-4.05,20.17-7.38,31.56-7.3-2.8,1.09-5.56,2.34-8.42,3.25-15.08,4.77-29.12,11.78-42.98,19.31-6.23,3.38-4.34,5.12.22,7.79,7.49,4.38,16.04,6.16,23.73,10.23-9.56,1.26-18.16-2.09-26.54-5.9-7.77-3.54-15.26-2.95-24.39-.17,15.65,10.23,32.1,15.4,47.27,23.4-16.93-2.16-32.17-9.66-48.38-14.66,2.15,1.44,4.3,2.89,7.87,5.28-5.07.66-7.64-1.54-10.4-2.79-12.35-5.59-10.82-8.68-16.1,6.19-.72,2.03-1.23,4.26-2.42,5.99-4.36,6.32-3.28,8.05,4.76,8.81,29.46,2.78,58.83,6.46,88.22,9.96,15.27,1.82,30.58,2.86,46.03,3.87-8.79,5.17-18.72,2.11-29.44,4.06,8.29,6.39,16.3,11.58,21,20.14-.94.29-1.78.75-1.96.57-15.59-15.88-35.25-22.08-56.75-23.77-24.28-1.91-48.31-6.41-72.7-7.1-8.57-.24-19.23,7.52-19.87,15.77-.76,9.83,6.08,4.03,10.8,3.75.26,3.14-5.35,4.27-3.14,7.38,1.55,2.2,3.87,3.92,6.03,5.61,5.32,4.17,10.74,8.2,16.11,12.31.12.09-.04.53-.12,1.32-5.96-.99-9.91-5.89-15.49-7.88,16.51,23.07,37.94,32.75,57.45,28.82,13.46-2.71,31.41.64,46.4,6.42-1.11,2.66-3.14,1.17-4.52.86-21.76-4.93-42.82-2.72-63.42,5.63-3.6,1.46-5.09,3.03-5.32,7.26-.94,17.59-1.58,35.09,3.44,52.27.31,1.04-.08,2.29-.81,3.51-6.1-13.26-8.95-27.06-8.55-41.68.53-19.35.33-19.34-18.63-13.2-6.75,2.19-13.32,4.57-19.38,8.54-12.91,8.46-11.63,22.97-15.6,35.23-.64,1.98,1.48,3.24,3.17,4.05,16.25,7.73,30.3,19.01,45.15,28.88,19.08,12.68,38.48,11.38,58.27,4.51,13.65-4.74,27.39-6.5,41.92-5.2-22.02.88-40.86,12.11-62.86,17.7,7.5,5.41,15.65,5.58,22.89,7.72,5.98,1.77,12.42,7,18.55,3.34,10.18-6.08,21.98-10,29.12-20.64,5.38-8.02,5.37-16.08,2-24.64-3.36-8.51-6.63-17.06-8.72-26.16,6.98,10.54,13.64,21.26,17.05,33.49,1.4,5.02,3.05,6.13,8.19,5.1,15.65-3.15,31.41-.62,47.02.73,11.73,1.01,20.74-2.42,29.1-10.48,7-6.74,15.19-12.26,24.79-15.57-19.79,12.98-32.24,33.77-52.77,47.64,8.82,4.07,12.82-5.57,19.44-5.38-.06.8.07,1.44-.17,1.87-1.49,2.62-6.68,3.01-5.71,6.44.97,3.44,5.58,3.36,8.72,4.15,8.18,2.06,16.52,3.51,24.17,7.5-10.81.11-21.42-1.4-31.63-4.42-7.63-2.26-12.66-.21-18.02,5.19-9.64,9.7-17.29,21.92-32.4,25.79,6.71,6.15,13.4,10.75,17.05,18.1,1.17,2.34,2.9,3.3,5.25,2.07,21.02-11.11,44.69-11,67.2-15.73,15.99-3.36,32.13-5.94,47.84-10.59,1.98-.58,4.09-1.68,6.72.42-5.77,5.31-13.68,5.34-20.73,9.3,8.9,3.16,17.69,5.41,27.01,12.22-7.61.32-11.85-2.51-16.29-3.97-15.94-5.21-31.71-2.86-47.52.3-16.03,3.21-32.05,6.45-48.05,9.79-2.69.56-5.3,1.63-7.88,2.62-5.86,2.24-7.68,5.61-3.25,11.07,5.02,6.17,9.78,12.56,14.07,19.38-7.59-3.63-12.67-9.94-17.34-16.47-3.77-5.28-7.24-6.84-12.74-2.2-5.39,4.55-11.05,8.68-18.75,9.18-5.37.35-3.67,3.93-1.46,6.44,5.54,6.34,10.14,13.13,12.42,21.37,1.19,4.3,4.27,3.96,7.27,2.1,15.99-9.9,35.46-10.27,51.95-19.04,3.49-1.86,7.93,2.69,13.13.78,14.15-5.21,28.73-9.3,43.21-13.59,4.05-1.2,8.22-2.57,13.02-1-11.39,5.56-24.59,7.19-35.84,15.32,5.86,4.55,12.38,4.76,18.45,6.13,6.1,1.38,12.57,1.36,18.04,5.94-8.42-.63-17.01-.43-25.23-2.08-18.66-3.74-36.86-.35-55.14,2.19-14.51,2.02-24.66,12.09-35.78,20.26-2.17,1.59-3.57,3.81-2.21,6.4,9.29,17.74,17.32,36.9,38.09,44.46,8.01,2.91,16.83,3.57,24.79,7.11,9.54,4.24,18.91,8.7,25.78,17.57-19.75-16.18-45.88-13.85-67.69-24.81-.91,6.99-1.57,13.66-2.71,20.26-.63,3.68.74,5.85,3.66,7.64,7.87,4.83,16.18,6.92,25.54,5.89,15.89-1.76,31.77-2.03,48.95,4.68-5.22,1.55-8.35.29-11.49-.08-11.38-1.33-22.78-2.06-33.94,1.38-8.65,2.67-17.04,1-25.93-1.56,4.63,25.43-6.83,50.91,4.8,75.29-8.35-7.9-13-30.95-10.39-47.52,2.02-12.86.23-20.94-6.72-29.5-4.03,10.5-4,21.66-6.77,32.31-3.62-9.83-.98-19.65.68-29.15,1.38-7.9-.09-13.71-5.76-19.12-12.33-11.77-23.3-24.67-31.5-39.74-1.88-3.46-4.41-4.86-8.37-2.87-6.68,3.35-13.86,5.17-21.29,5.88-3.7.35-5.32,1.84-3.1,5.33,10.5,16.48,8.98,34.88,8.36,53.04-.51,15.19,5.28,26.99,17.61,35.58,7.21,5.03,12.84,11.57,18.05,18.43,4.56,6,9.18,12.11,10.72,20.07-11.73-16.67-25.02-31.53-43.94-41.75,2.76,8.56,5.32,16.54,7.89,24.51-12.77-19.37-23.5-39.31-19.09-63.5,3.39-18.6-2.06-32.28-20.14-40.77-12.28-5.77-22.37-15.28-33.21-23.46-3.12-2.36-6.76-6.19-10.6-3.31-3.2,2.4.45,6.16,1.12,9.31.19.9.75,1.76.78,2.66.36,10.22-.67,20.8,10.95,28.79-6.41.1-7.19-4.5-11.37-4.19-2.12,20.37-2.89,40.29,16.93,56.42-7.33-.51-8.22-5.95-12.6-6.74-.07,6.38,3.57,11.07,6.84,15.71,6.22,8.81,12.93,17.26,19.24,26,2.43,3.37,6.06,4.02,9.52,5.18,40.19,13.57,75.28,36.66,110.65,59.23.72.46,1.16,1.33,2.96,3.47-39.52-16.55-73.92-39.97-113.61-54.36,8.17,36.59,31.22,63.43,48.34,93.67-9.57-9.97-16.36-22.34-28.49-31.16-2.38,10.03,4.74,15.17,8.67,21.55,4.17,6.76,9.87,12.58,13.68,21.97-8.03-4.93-10.18-13.09-16.97-17.59-1.09,5.73,3.87,9.85,1.17,17.11-7.09-19.07-13.13-36.92-28.98-48.98-2.4.66,0,4.69-3.87,6.05-.12-.28-.76-1.08-.78-1.89-.44-15.2-8.34-28.27-12.06-42.52-2.18-8.36-8.09-9.05-14.98-8.64-7.22.42-13.92.71-16.5,9.89-4.37,15.52-6.94,31.28-8.39,47.27-.17,1.84-.17,3.7-.36,5.54-.27,2.53-.91,5.53-3.57,5.9-3.31.47-3.26-3.14-3.88-5.23-3.98-13.48-4.63-27.35-3.86-41.27.74-13.42-4.12-24.33-12.51-34.68-14.66-18.08-33.58-29.51-54.65-38.22-3.49-1.44-4.61-.53-4.62,2.78-.03,10.69-4.82,20.36-6.49,30.7-1.31,8.09-4.35,15.61-2.92,24.47,2.95,18.32,9.45,33.21,27.13,42.03,6.71,3.35,11.73,9.68,15.2,17.08-8.81-5.24-15.4-13.89-26.34-16.38,12.11,20.41,19.02,43.41,33.41,62.38,5.37,7.07,13.3,10.68,22.01,12.7,13.35,3.1,25.46,8.86,35.57,18.81-17.89-11.88-40.09-11.29-59.28-21.64-3.01,22.48-13.33,43.16-13.29,66.14-1.95-14.24-2.33-28.27,1.77-42.12,4.37-14.77,3.31-29.11-2.83-43.35-8.58-19.89-19.64-38.44-30.03-57.36-1.43-2.6-2.58-4.66-6.35-2.82-13.54,6.63-25.22,15.24-33.23,28.38-6,9.84-6.12,18.16.84,27.4,7.85,10.41,12.51,21.75,12.09,35.81-3.61-2.08-3.2-5.44-3.83-7.99-2.21-8.89-5.41-17.91-12.68-23.11-6.87-4.91-2.38-23.77-20.34-15.66-8.96,4.04-20.13,1.66-29.96,4.65-4.04,1.23-7.95,3.14-14.32,2.75,10.03-6.42,19.57-10.31,29.4-10.46,22.03-.35,28.03-18.29,37.91-32.17,1.69-2.37.46-4.79-.99-6.87-22.12-31.77-34.68-68.01-48.67-103.6-2.59-6.58-6.31-12.71-9.24-19.17-3.08-6.81-6.68-9.59-12.58-2.64-.93,1.09-2.38,1.74-3.5,2.53-2.27-1.76-.91-3.02-.05-4.1,8.35-10.47,7.93-10.13.13-20.49-11.64-15.48-24.83-30.01-32.07-48.41-2.28-5.79-7.24-5.43-11.7-4.74-14.92,2.33-29.72,5.39-44.65,7.64-15.54,2.34-31.21,3.72-46.59,7.14-6.76,1.51-13.03,3.05-5.55,12.68-15.28-15.31-29.16-.76-43.22-.14-2.39.1-3.43,3.28-4.45,5.56-8.77,19.79-16.02,40.07-20.87,61.21-1.4,6.1.48,10.02,6.49,10.86,20.17,2.81,37.12,12.71,53.91,23.3,9.01,5.68,19.5,7.49,29.79,9.6,14.5,2.97,28.38,7.6,40.71,16.59-7.53-2.2-15.17-4.08-22.56-6.69-10.07-3.56-20.68-3.16-30.98-4.98-4.79-.85-5.93,1.79-5.34,6.02,1.08,7.67,4.31,14.69,6.1,22.4-4.9-3.21-7.46-8.32-9.27-13.38-8.56-23.91-28.35-34.17-50.39-40.7-19.85-5.88-19.75-5.08-17.17,14.98,3.18,24.72,4.45,49.7,11.48,73.84,2.17,7.46-1.63,14.55-2.78,21.79-.49,3.04-1.12,6.11-2.15,8.99-3.8,10.63-2.27,19.06,8.8,24.44,2.59,1.26,5.22,3.28,6.85,8.81-5.45-3.55-9.45-6.03-13.31-8.71-4.29-2.98-7.14-3.84-7.14,3.21,0,45.89-2.28,91.81,9.84,136.98,8.46,31.53,9.08,64.8,19.69,95.95,4.27,12.54,9.32,24.82,13.78,37.31,3.08,8.62,1.82,10.46-7.14,11.19-55.13,4.48-110.27,4.85-165.39-.15-11.35-1.03-12.76-3.12-7.65-13.06,9.74-18.95,18.9-38.14,26.23-58.18,8.89-24.32,11.61-49.72,13.4-75.28.92-13.22,1.09-26.5,2.05-39.72.61-8.32-2.54-11.8-10.99-11.79-13.53.02-27.16.42-39.57-6.93-5.35-3.17-5.06,2.42-6,5.16-3.58,10.42-17.26,28.28-28.93,35.84,5.17-7.93,8.65-13.94,12.77-19.46,9.96-13.35,11.06-27.63,5.42-42.88-2.46-6.65-4.74-13.37-7.12-20.05-2.17-6.1-7.14-6.8-12.09-5.06-5.39,1.89-3.25,6.59-2.09,10.28,2.38,7.58,8.1,14.5,4.48,24.37-4.23-4.37-1.73-10.79-8.11-14.58-2.41,12.98-3.64,25.91-10.36,37.24,3.34-15.82,2.78-31.75,2.85-47.65.04-9.35-11.32-16.8-20.24-13.41-2.6.99-2.85,2.82-2.61,5.17.33,3.21,1.88,6.5-.51,9.95-.72-.82-1.45-1.38-1.81-2.12-1.57-3.21,0-8.77-4.05-9.64-4.83-1.04-6.95,4.36-9.51,7.56-6.59,8.27-16.6,14.33-17.55,26.37-.22,2.76-1.09,5.62-.61,8.25,3.7,20.02-7.65,33.24-20.88,45.07-13.13,11.75-25.42,24.29-37.77,36.81-5.18,5.25-4.19,8.77,2.81,9.99,14.97,2.62,29.23,7.55,43.58,12.29,9.87,3.26,19.56,1.22,28.83-2.87,11.36-5.01,23.31-8.04,35.29-11,3.14-.78,6.4-2.01,11.85.63-35.66,11.09-66.58,27.36-95.12,52.32.16-10.15,6.02-13.64,10.33-17.9,8.1-8.03,8-8.99-3-12.85-11.08-3.89-22.3-7.22-34.02-8.59-2.13-.25-4.19-1.02-6.31-1.41-5.61-1.04-8.28-8.94-14.08-7.67-23.19,5.06-47.45-3.51-70.32,6.23-8.93,3.81-17.21,7.76-24.02,14.98-6.72,7.13-15,12.13-25.74,12.46,12.56-6.25,20.08-16.92,27.43-29.27-17.37-5.04-31.51-16.17-47.24-24.35-3.61-1.88-6.87-1.91-10.54-.14-20.84,10.04-40.85,20.86-59.29,35.5-22.45,17.83-48.8,27.49-78.57,20.25-1.49-.36-3.26-.52-4.36-1.43-11.71-9.71-25.03-16.49-39.25-22.05,12.12-.4,23.52,2.54,33.52,8.73,13.77,8.52,27.71,8.64,42.62,4.38,20.82-5.95,40.15-14.15,54.47-33.74-12.25-2.09-20.26-10.94-29.9-17.27-7.72-5.07-15.48-7.46-24.23-2.53-1.48.83-3.42,1.63-5.41.18.83-4.19,5.7-2.94,8.32-6.51-17.13-5.34-33.99-8.26-51.53-4.99-5.47,1.02-8.66,5.73-12.89,8.73-5.28,3.74-10.46,7.55-16.79,9.23-2.67-2.59,2.39-3.24.86-5.76-11.53,3.78-23.46,6.06-36,5.76,20.05-5.88,39.85-11.96,56.4-26.94-24.21-5.12-47.87-5.7-71.62-5.4-.01-1.03-.03-2.05-.04-3.08,9.53-.9,19.04-2.21,28.59-2.58,11.09-.43,22.22.14,33.32-.06,10.46-.18,10.85-.97,7.37-10.47-5.44-14.86-12.53-28.83-21.85-41.67-1.52-2.09-4.21-3.79-3.38-7.19,3.51-.28,4.68,2.67,6.23,4.65,9.7,12.39,19.18,24.91,26.1,39.2,5.24,10.82,8.31,11.55,18.73,5.87,13.95-7.61,18.8-15.01,24.89-38.43-8.21,0-13.42,4.86-18.72,9.81-1.94,1.81-4.16,6.23-7.31,2.33-2.86-3.54,1-5.37,3.57-6.95,12.38-7.63,21.32-17.21,21.69-33.04.14-6.03,2.67-12,4.12-18,.58-2.4,1.63-5.13-.99-6.74-3.18-1.94-4.27,1.52-5.75,3.11-10.48,11.31-21.7,21.71-35.16,30.07-.98-3.7,1.91-4.65,3.41-6.19,6.25-6.39,13.27-12.14,18.83-19.06,3.48-4.34,12.45-8.43,6.74-15.49-7.55-9.34-23.83-11.41-30.74-5.68-12.09,10.04-14.41,18.62-9.06,33.55,4.53,12.65,4.45,26.13-1.15,34.7,4.83-18.39-9.27-32.7-9.77-49.93-.12-4.14-2.49-4.74-5.52-3.67-10.22,3.6-21.03,1.65-31.46,3.6-5.15.96-5.58,4.19-6.11,7.78-1.61,10.72-4.36,21.15-7.69,31.43-.91,2.81-.96,6.14-6.22,9.04Zm1094.6-376.47c-1.42.64-1.99,1.97-.56,2.66,7.55,3.63,12.07,10.29,17.21,16.42,3.88,4.63,9.01,7.28,15.02,8.34,5.44.96,10.85,2.15,16.24,3.37.76.17,1.37,1.05,2,1.57-1.45,2.99-5.94-.87-6.8,3.69,2.18,1.53,4.32,3.29,6.68,4.64,4.78,2.73,10.07,2.55,13.75-1.14,4.05-4.06-.97-7.33-3.06-10.18-6.17-8.38-14.11-15.58-16.61-26.28-.29-1.24-.84-2.78-2.26-2.34-10.66,3.25-21.32-3.43-31.96.14-3.31,1.11-6.66,1.38-9.7-.93,7.75-1.68,15.12-7.07,23.04-5.39,13.93,2.95,20.7-3.66,24.58-15.51.83-2.52,4.95-5.15.99-7.92-2.83-1.98-6.27-2.35-9.46.01-13.03,9.64-26.08,19.24-39.12,28.85Zm75.95-64.8c-4.18-.49-7.37-2.91-10.6-5.33-9.37-7.03-18.61-14.23-28.22-20.92-10.46-7.27-22.43-6.34-34.59-4.73,10.31,4.15,20.63,8.3,30.94,12.45-4.37,2.32-7.51.99-10.54-.41-23.87-11.04-47.46-10.85-71.83,2.65,6.37,1.71,12.09,3.47,17.91,4.77,29.82,6.67,60.7,5.95,90.52,12.85,5.27,1.22,11.07,1.24,16.33-1.38,5.56-.86,9.19-4.66,12.83-8.44,2.57-2.67,2.79-4.93-1.41-5.79-9.14-1.88-18.21-4.35-28.26-4.53,3.83,8.67,12.56,11.77,16.92,18.81Zm-742.57,262.89c13.71,4.4,26.9,10.37,41.07,13.34,6.93,1.45,13.82,3.01,20.96,3.03,4.93.02,8.04-2.41,7.44-7.21-1.32-10.48-5.84-19.55-15.08-25.24-7.75-4.78-15.35-2.42-22.51,2.15-9.92,6.32-20.4,11.4-31.94,14.02,1.83-1.6,3.47-3.5,5.51-4.76,18.18-11.28,36.94-21.43,49.68-39.92,7.77-11.29,8.84-10.78-2.8-17.14-4.33-2.37-9-4.42-12.69-7.58-9.78-8.36-21.06-9.53-33.03-7.91-9.46,1.29-18.94,2.63-28.28,4.58-11.19,2.33-15.74,7.09-16.31,18.15-.6,11.84-3.04,23.25-6.23,34.51-1.56,5.5.43,7.56,4.99,9.87,12.39,6.27,25.98,7.44,39.22,10.12Zm-23.56,191.97c-5.89-3.29-10.73-5.7-15.24-8.6-4.29-2.76-8.17-3.31-12.89-.78-14.16,7.6-29.45,10.76-45.46,10.52-4.2-.06-7.61.79-10.45,4.47-11.34,14.66-24.5,27.68-37.59,40.74-3.62,3.61-6.87,8.26-12.43,9.17-9.67,1.58-16.76,8.09-27.19,12.12,10.41,4.77,18.93,8.25,27.06,12.49,13.06,6.81,27.01,9.86,41.17,6.8,17.75-3.85,35.48-3.82,53.35-3.26,10.61.33,19.33-3.51,25.94-11.75,11.03-13.75,23.88-25.77,36.14-38.34,2.78-2.85,5.3-5.99,7.76-9.13,3.54-4.54,2.08-8.36-1.55-12.27-3.88-4.17-6.86-2.01-10.44.31-2.83,1.83-5.19,4.87-11.66,5.66,5.61-4.9,9.35-8,12.87-11.33,1.8-1.7,3.85-4.86-.37-5.15-8.57-.59-13.87-6.06-19.72-11.02-2.37-2.01-5.01-3.5-8.35-1.47,1.72,4.16,7.17,4.74,9.06,10.81Zm-64.85-567.01c-5.66,7.89-12.29,15.14-9.53,24.61,7.7,26.45,18.5,51.56,35.27,73.8,3.19,4.24,5.97,5.95,11.52,4.44,11.88-3.24,24.04-5.11,36.39-6.11,11.64-.95,23.63-1.94,33.51-9.09,13.7-9.92,26.31-21.46,42.58-27.37,3.53-1.28,4.2-3.41,1.48-6.19-17.37-17.8-35.28-34.92-61.72-37.62-24.25-2.47-48.3-5.89-71.8-12.56-6.3-1.79-12.58-4.03-16.04,4.58-2.27-2.91,1.15-5.33-1.67-8.49Zm536.63-198.76c-5.76-7.8-5.75-16.39-6.17-24.95-.5-10.3-5.78-13.27-14.5-7.58-11.1,7.23-22.07,14.72-31.45,24.25-4.67,4.74-8.08,10.13-9.19,16.76-1.78,10.65-6.44,19.99-13.42,28.03-9.9,11.4-20.27,22.39-30.29,33.69-2.83,3.19-6.16,6.62-5.28,11.37,1.94,10.44.82,20.93.92,31.39.05,4.91,2.24,7.56,6.46,10.09,6.88,4.13,11.89,2.94,16.63-3.03,19.36-24.44,40.95-46.88,62.6-69.26,6.28-6.5,11.04-14.01,14.5-22.38,8.83-21.34,17.29-42.79,31.11-61.74,6.47-8.88,9.47-19.58,6.02-32.16-9.61,8.58-17.06,17.72-26.5,24.68-2.72,2.01-1.51,4.99-1.49,7.72.11,11.04.05,22.08.05,33.13Zm-209.32-45.75c-12.1,1.2-23.25-2.06-34.27-5.95-9.99-3.52-19.4-3.66-27.3,4.71-11.68,12.37-21.27,26.38-31.15,40.15-2.84,3.96-2.22,5.87,3.07,6.19,19.03,1.14,37.19-2.27,54.52-10.05,7.99-3.59,15.59-8.13,25.02-8.08-6.91,3.48-13.82,6.97-20.73,10.45,8.74.81,17.05-.6,27.73,1.98-4.49,1.18-6.5,2.16-8.51,2.17-18.76.12-35.61,5.52-50.59,17.02-2.63,2.02-5.64,3.02-3.47,6.89,3.19,5.69,2.76,11.89,2.91,18.04.24,9.84,1.05,10.56,10.17,7.37,17.81-6.22,34.02-16.05,51.32-23.29,11.64-4.87,21.34-9.78,26.27-22.56,3.02-7.84,10.3-13.78,13.7-21.83,4.74-11.23.18-22.43-11.12-24.93-16.6-3.67-32.71-8.86-48.93-13.77-7.04-2.13-14.14-2.8-21.83.15,14.42,6.81,28.49,11.85,43.16,15.33Zm-94.24,464.88c-21.93-3.64-22.95-3.04-27.12,14.76-2.42,10.33,3.51,18.75,14.28,18.99,18.19.4,36.45.97,54.58-.16,12.39-.77,18.78-6.56,17.42-17.79-.74-6.08-.7-12.39,0-18.48,1.21-10.64-2.7-18.78-9.36-26.86-17.67-21.42-33.81-44.02-49.46-66.97-2.98-4.38-4.61-9.86-8.96-13.18-2.55,1.73-2.15,3.76-2.39,5.51-3.37,24.91-11.11,49.5-4.34,75.1,1.64,6.19-4.72,12.82-1.88,18.87,2.87,6.11,11.97,3.94,17.23,10.21Zm540.22,100.16c-5.39-6.86-7.13-15.06-9.47-22.94-10.68-35.89-31.21-65.34-58.54-90.41-2.56-2.35-5.29-4.19-9.13-3.28-8.09,1.92-16.26,3.54-24.32,5.59-4.29,1.1-8.47,3.12-8.94,8.22-1.7,18.61-.19,36.65,13.38,51.1,8.87,9.44,18.9,17.84,29.77,24.87,25.35,16.41,55.63,23.93,79.25,43.59,1.53,1.27,3.1,1.28,4.7-.68,4.15-5.07,5.26-25.06,1.11-30.28-6.08-7.65-12.89-14.57-22.32-19.93-1.7,12.44,4.08,22.91,4.49,34.15Zm-458.49-467.82c.9.28,1.8.56,2.7.84-3.83,15.62-7.34,31.33-11.62,46.83-1.9,6.87-1.66,9.42,6.63,8.08,11.55-1.86,23.21-3.79,35.06-2.91-14.1,5.82-29.77,5.53-45.07,11.45,8.71,6.92,16.44,12.36,25.07,16.52,3.25,1.57,6.2,2.12,9.66.48,7.61-3.63,14.31-7.54,17.87-16.2,3.52-8.55,7.3-16.91,9.24-26,3.97-18.63,9.86-36.86,11.18-56.04.61-8.78-3.16-11.68-11.68-12.48-16.21-1.53-30.22,3.84-44.06,11.1-17.71,9.29-36.97,15.4-53.78,26.59-5.22,3.47-6.64,6.18-2.17,11.48,6.95,8.23,13.16,17.07,19.83,25.55,2.21,2.81,4.1,7.32,8.09,6.68,4.19-.68,3.76-5.79,5.14-9.07,6-14.29,11.94-28.59,17.91-42.9Zm324.62,411.14c-6.75,9.99-14.82,15.79-24.63,19.44-4.02,1.5-7.72,3.84-11.67,5.54-5.09,2.19-6.16,4.89-2.92,9.89,3.5,5.41,6.64,11.21,8.88,17.23,13.67,36.73,29,72.76,44.85,108.59,2.04,4.6,4.04,6.32,7.7,1.97,11.45-13.62,19.97-28.52,16.43-47.17-3.15-16.62-2.45-32.5,5.88-47.55,2.76-4.99,1.72-9.12-1.6-13.6-6.99-9.45-14.17-18.72-22.91-26.61-8.33-7.53-15.56-15.78-20.03-27.74Zm-45.01-247.13c5.76-.89,10.09-4.45,14.47-7.83,10.23-7.91,20.03-16.38,31.17-23.1,23.22-14,47.51-26.16,70.02-41.39,6.35-4.29,11.19-9.16,14.57-16.11,2.57-5.29,3.49-9.47-.76-14.22-4.43-4.94-9.32-8.36-16.15-6.26-14.42,4.44-29.36,7.94-42.18,16.16-11.02,7.06-22.95,10.69-35.56,11.86-15,1.39-25.33,9.43-32.36,21.68-10.94,19.06-22.75,37.37-38.21,53.14-1.43,1.46-3.81,3.12-2.24,5.42,1.38,2.03,4.09,1.46,5.98.54,9.49-4.58,18.94-4.94,28.52-.36.8.38,1.8.33,2.73.48Zm-34.11-345.77c-.18,0-.37-.01-.55-.02,0-4.31.48-8.68-.08-12.92-2.67-20.24-10.7-23.96-27.29-12.47-13.93,9.65-27.04,20.56-42.72,27.41-5.4,2.36-8.86,6.22-11.9,11.07-12.31,19.62-19.31,40.37-15.46,63.95.64,3.93,1.74,3.78,4.61,2.63,19.71-7.89,40.5-12.67,59.88-21.71,13.63-6.36,20.44-19.11,30.56-28.71.94-.89,1.05-2.86,1.17-4.36.65-8.29,1.19-16.58,1.77-24.88ZM356.87,1008.83c3.81.61,7.94-1.4,11.82-5.03,6.3-5.89,12.67-11.79,19.61-16.87,6.09-4.46,7.06-9.14,6-16.58-2.92-20.64-14.37-37.83-21.17-56.86-1.23-3.44-3.06-1.94-4.97-.72-4.67,2.97-9.01,6.91-14.11,8.67-33.61,11.63-49.01,40.54-65.71,68.28-2.58,4.29-1.03,6.02,3.77,6.26,13.3.67,26.15,3.76,38.99,7.12,8.02,2.09,15.81,5.28,25.76,5.72ZM894.23,409.62c34.48,6.06,65.98-6.84,98.51-12.37,7.39-1.26,12.23-5,15.05-11.92,4.3-10.57,9.58-20.7,16-30.12,3.65-5.35,1.7-7.41-3.56-9.16-7.58-2.52-15-5.52-22.48-8.34-9.99-3.77-19.81-2.76-27.85,3.82-19.81,16.21-40.54,31.09-61.87,45.17-8.65,5.71-10.85,14.92-13.81,22.92Zm-355.9,213.31c8.06-4.6,16.79-6.31,25.59-4.24,7,1.65,10.82-.93,14.67-6.19,9.63-13.15,14.67-28.36,20.46-43.27,1.82-4.69-.88-6.69-4.08-8.93-8.83-6.19-17.49-12.62-23.93-21.46-1.73-2.37-3.55-2.92-6.32-1.95-14.64,5.13-28.58,11.47-40.06,22.24-3.45,3.24-6.69,6.9-4.77,12.09,3.62,9.78,2.19,19.22-.4,28.98-3.52,13.24-.82,18.51,11.55,24.34,6.16,2.9,12.12,6.08,17.49,10.25,8.95,6.95,8.91,7,15.37-2.51,4.49-6.61,3.49-8.69-4.71-9.74-6.95-.89-13.88.37-20.86.41Zm-293,415.49c4.35-1.44,7.37.84,9.52,3.01,8.51,8.63,17.42,7.21,26.99,2.27,14.08-7.27,28.76-12.57,44.86-13.08,2.09-.07,4.22-.83,6.22-1.56,1.96-.72,4.68-1.19,4.92-3.6.29-2.83-2.81-2.69-4.55-3.7-23.56-13.69-49.19-11.45-74.75-9.7-16.28,1.11-31.83,4.43-43.94,16.53-13.62,13.6-29.26,24.47-45.54,34.54-2.15,1.33-5.38,1.86-5.83,6.91,14.01,2.41,27.66,6.51,42.04,7.95,18.52,1.86,32.12-8.32,46.49-17.21,5.12-3.17,4.7-6.06,1.95-10.49-2.5-4.03-7.07-6.7-8.39-11.85Zm892.11-602.25c11.43,13.21,23.88,13.16,38.09,8.19,9.23-3.23,10.22-3.45,4.63-11.37-8.24-11.67-19.56-20.49-29.23-30.86-6.57-7.04-10.32-6.58-14.47,1.99-8.74,18.06-21.97,31.73-38.87,42.3-17.06,10.68-32.8,23.06-46.29,38.11-1.96,2.18-5.82,3.98-4.59,7.32,1.13,3.09,5.26,2.58,8.13,3.42,1.74.51,3.76.91,5.48.55,18.96-3.98,38.12-1.74,57.19-1.99,6.92-.09,10.86-3.24,11.51-10.48.55-6.16,1.13-12.96,5.66-17.3,9.3-8.91,14.67-17.52,2.76-29.9Zm-820.9,466.55c-6.8.8-10.22,3.99-13.76,6.52-29.52,21.2-44.98,53.28-63.69,82.82-3.43,5.41.68,7.44,5.35,7.18,9.82-.55,19.61-1.54,29.4-2.55,5.07-.52,6.76-4.46,8.42-8.68,13.06-33.16,32.7-60.43,67.05-74.54,14.08-5.78,21.65-16.76,23.49-31.72.33-2.66,1.7-7.72-3.64-5.88-15.86,5.44-32.65,9.29-44.22,23.17-4.71,5.64-9.24,11.65-16.82,14.32,2.25-2.84,4.5-5.68,8.43-10.64Zm68.12-539.26c.36-2.79,2.23-3.42,3.53-4.55,1.75-1.52,5.24-2.61,3.79-5.45-1.38-2.71-4.47-1.12-6.63-.23-7.12,2.92-14.14,6.07-21.21,9.11-3.01,1.29-4.3,3.47-3.3,6.64,3.8,12.05,6.96,24.22,8.21,36.86.18,1.79,2.29,3.51,3.76,5.02,3.86,3.97,7.89,7.79,11.81,11.7,7.7,7.68,17.1,11.97,27.71,13.58,3.55.54,8.17,1.24,9.55-3.32,2.93-9.63,7.6-18.24,16.3-26.88-13.11.45-21.77-3.77-30.12-9.45-9.23-6.28-19.73-9.99-30.36-13.28-3.02-.94-6.57-.99-9.73-5.11,17.12,2.09,31.66,7.47,45.35,15.25,10.7,6.08,22.05,7.54,33.91,5.33,3.28-.61,8.57-1.34,4.92-6.93-8.08-12.37-15.93-25.04-27.68-34.4-9.9-7.89-18.21-7.39-28.15.79-3.25,2.67-6.64,5.23-11.66,5.34Zm888.08,295.67c-10.93-8.94-19.67-20.18-25.34-32.96-4.71-10.6-13.34-10.07-21.43-10.47-7.69-.39-8.63,7.62-11.24,12.89-3.06,6.18-2.55,12.44.33,18.72,4.41,9.61,11.55,17.44,16.9,26.43,2.23,3.75,6.08,3.74,9.87,3.5,12.45-.79,24.52,1.28,36.56,4.25,12.39,3.05,24.46,2.18,35.52-5.02,3.53-2.3,6.02-4.4,4.36-9.66-6.05-19.29-19.21-30.48-40.01-36.54,4.57,5.2,7.86,8.95,11.16,12.71-13.46-5.8-19.84-22.99-38.38-21.14,5.47,13.98,14.28,25.07,21.71,37.32Zm-256.51-414.2c9.35-2.95,14.68-8.71,22.27-9.27-5.5,4.47-11.09,8.82-17.26,12.06-16.65,8.73-22.51,24.43-27.44,40.88-1.08,3.59-1.31,6.16,3.93,5.14,29.32-5.75,55.59-15.71,70.67-44.59,7.8-14.93,16.2-30.17,37.2-30.02,5.05.04,8.52-6.31,8.09-10.95-.44-4.72-6.05-2.35-9.33-2.45-11.7-.38-23.41-.65-35.09-.85-9.19-.16-19.88-2.46-27.44,4.88-9.93,9.64-17.49,21.28-25.6,35.2ZM213.81,971.87c-.1,5.31,2.52,9.91,6.39,12.65,4.58,3.25,6.97-2.23,9.54-4.75,12.9-12.64,21.02-28.78,30.91-43.59,8.98-13.46,19.07-25.61,32.18-35.23,12.17-8.93,24.46-17.61,37.48-25.31,13.16-7.78,13.08-12.95.42-20.44-.79-.47-1.62-.88-2.45-1.29-12.29-6.08-16.37-5.26-25.55,5.03-1.42,1.59-2.86,4.01-4.6,4.32-9.9,1.77-15.76,9.31-22.36,15.48-26.25,24.56-43.1,55.7-59.69,86.96-1,1.88-1.5,4.03-2.27,6.16Zm370.49-680.12c.72-4.17-1.44-7.52-4.44-11.01-5.87-6.84-14.11-8.59-21.96-10.99-14.92-4.55-29.52-9.29-37.63-24.33-.67-1.24-2.15-2.31-3.5-2.87-13.35-5.55-26.62-11.4-40.83-14.47-3.93-.85-8.04-.85-10.86,3.07-4.91,6.81-2.59,22.64,5,26.09,31.73,14.43,59.46,36.09,91.47,49.97,20.05,8.69,22.15,7.42,22.76-15.46Zm-214.03,184.36c-16.17-.24-29.41,6.76-43.66,9.16,10.97-7.09,22.97-11.32,35.59-14.01,9.73-2.07,9.95-2.53,4.23-10.89-11.22-16.39-25.29-30.11-40.31-42.96-13.43-11.5-12.55-12.3-17.36,5.12-5.15,18.65-11.52,37.07-10.68,56.9.23,5.36,1.31,8.71,7.59,9.03,7.4.38,14.45,2.87,21.49,5.13,21.88,7.02,29.25,4.21,43.11-17.47ZM932.89,202.63c-14.35,5.01-26.65,9.66-39.18,13.55-9.55,2.96-18.92,6.32-26.15,13.26-14.22,13.66-27.98,27.79-41.8,41.84-1.43,1.46-2.44,3.66-2.89,5.69-2.98,13.32-1.55,26.27,3.43,38.95,1.57,4,3.24,4.69,6.55,1.59,16.49-15.45,36.34-28.12,41.53-52.66.84-3.97,3.9-7.73,6.65-10.99,7-8.3,15.79-14.65,24.44-21.13,10.36-7.76,20.35-15.93,27.44-30.1Zm-76.69-52.41c-1.02-8.24-2.31-15.76-5.98-22.7-1.58-2.98-2.73-4.29-6.01-1.18-9.64,9.16-18.07,18.73-22.75,31.73-6.04,16.78-14.21,32.7-24.84,47.22-1.79,2.44-2.64,5.55-4.2,8.18-2.66,4.49-1.95,7.58,2.48,10.82,6.68,4.87,13.4,9.69,19.56,15.34,5.98,5.49,13.82,4.48,16.16-1.59,11.09-28.68,21.48-57.61,25.58-87.83Zm-453.58,813.54c10.59-20.21,22.38-38.61,36.51-55.24,6.42-7.56,7.41-15.09,6.01-23.88-.38-2.42-1.65-4.85-1.48-7.2.63-8.96-4.61-9.49-11.26-8.37-13.38,2.26-26.74,5.12-40.26.92-3.62-1.12-6.13-.06-6.87,3.83-2.53,13.32-6.38,26.91-1.49,40.14,6.14,16.61,15.48,31.99,18.84,49.79Zm-81.7-215.95c-5.1-2.96-8.94-5.44-12.99-7.51-18.72-9.53-38.46-16.68-58.02-24.21-6.15-2.37-12.6-7.25-19.35-3.91-11.76,5.83-24.79,9.76-33.87,20.15-4.61,5.27-3.02,8.63,3.24,10.76,8.83,2.99,16.81,7.66,24.53,12.82,7.14,4.78,15.01,7.32,23.6,6.78,23.45-1.48,46.06-7.74,68.92-12.51.84-.17,1.56-.91,3.94-2.36Zm190.37,213.33c4.62-11.49,14.59-17.61,22.11-26.02,2.25-2.52,6.27-5.82,2.26-9.3-3.97-3.45-7.55-.27-10.1,3.04-5.28,6.82-10.26,13.86-15.5,20.71-2.61,3.42-5.94,6.34-8.18,9.97-2.99,4.84,3.71,7.67,4.04,14.87-7.51-12.3-13.95-7.02-20.59-1.78.32-1.71.69-2.92,1.51-3.55,7.6-5.83,5.67-10.24-1.81-14.2-7.33-3.88-15.16-7.2-21.59-12.26-6.61-5.2-11.42-3.38-16.02,1.5-3.12,3.31-5.29,7.52-7.77,11.41-6.29,9.85-12.11,20.04-21.21,27.76-2.21,1.88-6.57,3.12-5.25,6.65,1.38,3.69,5.17,6.63,9.18,6.89,5.84.39,10.37-3.58,14.7-6.94,4.75-3.69-3.14-5.88-1.38-9.93,5.1.21,7.47,7.04,13.69,5.54,8.76-2.11,17.7-1.07,26.61.36,13.69,2.2,26,.34,36.11-10.95,7.75-8.65,15.96-17.08,26.45-22.86,5.24-2.89,2.51-7.03.82-10.96-5.34,3.3-10.19,5.96-14.65,9.16-4.67,3.36-8.96,7.25-13.42,10.9Zm599.36-609.73c6.02.5,11.72-.57,17.03-3.39,11.52-6.1,20.44-15.72,31.03-23.1,3.78-2.64.88-4.65-1.46-6.31-12.05-8.55-25.1-14.48-40.17-14.65-10.18-.12-20.35-.22-30.31-2.64-3.22-.78-6.22-.53-8.79,1.45-4.12,3.16-9.8,6.24-9.04,11.96,1.4,10.48,2.63,21.23,8.27,30.63.37.62,1.64.84,2.53.99,10.32,1.66,20.36,5,30.9,5.06Zm-586.58-129.5c-3.29-18.31-16.69-26.06-30.91-32.46-18.84-8.48-37.96-16.36-57.12-24.09-7.71-3.11-15.8-4.96-24.34-2.44-12.33,3.64-13.04,4.79-5.61,15.15,4.82,6.72,9.46,16.59,17.04,17.21,7.18.59,11.91,3.65,17,6.72,16.17,9.74,32.69,16.31,52.33,14.32,14.9-1.51,15-.41,7.69-13.45-.18-.31.32-1.01.64-1.92,8.74,5.64,10.47,18.85,23.27,20.96Zm470.38,185.58c-3.15-1.84-4.82-.57-6.58-.28-25.13,4.17-48.71,15.96-74.86,15.22-4.99-.14-4.55,2.6-2.6,6.02,4.2,7.37,4.13,15.04,2.22,23.21-4.93,21.13.94,27.87,22.72,27.38,3.95-.09,6.56-1.53,7.9-5.04,3.07-8.09,9.42-13.54,15.25-19.45,13.86-14.06,25.53-29.79,35.95-47.05Zm-51.81,134.46c-2.08.47-5.55.78-8.63,2.04-14.82,6.09-29.27,13-42.86,21.49-4.9,3.06-9.03,7.38-13.42,11.23-2.06,1.81-3.32,4.01-.31,6.04,14.12,9.51,25.9,22.72,46.73,17.85,12.35-2.89,18.19-8.67,21.15-19.5,2.12-7.75,4.78-15.23,8.62-22.33,6.39-11.81,3.4-16.74-11.28-16.82Zm-291.13,439.53c-9.79.91-18.39,1.54-26.93,2.61-3.1.39-6.8.43-5.99,5.93,4.19,28.22,17.32,41.63,44.62,44.23,6.68.64,14.46,5.08,19.7,1.46,5.95-4.12,2.6-13.23,4.12-20.01.13-.6.24-1.21.34-1.82,2.33-14.57,2.5-14.93-11.01-21.58-8.39-4.13-15.73-11.17-24.85-10.82Zm-422.41-167.94c16.3,5.36,16.09,4.88,31.52-1.77,20.62-8.9,39.58-21.18,60.78-28.91,6.59-2.4,13.19-5.73,19.81-11.82-15.84-1.23-29.9-11.43-43.75,1.74-.88-3.16.39-3.75,1.16-4.63.63-.72,2.36-1.12,1.39-2.18-33.22,1.51-60.03,12.49-70.91,47.58Zm219.06-159.61c.62-.33,1.6-.58,2.19-1.21,5.5-5.83,10.94-11.73,16.38-17.62,2.66-2.88.19-4.52-1.71-5.94-15.73-11.83-28.42-26.39-38.75-43.07-2.28-3.68-5.21-4.97-9.38-3.36-9.56,3.68-18.64,7.94-25.82,15.71-4.45,4.81-4.58,8.22,1.22,11.71,18.63,11.21,34.85,25.41,50.22,40.66,1.49,1.48,2.91,3.29,5.65,3.11Zm-127.04,53.59c.72,5.92.83,10.91,1.99,15.64,3.71,15.06,16.17,20.49,29.95,13.67,7.97-3.95,14.61-10.27,23.42-12.74,4.73-1.32,3.35-4.34,1.12-6.99-6.03-7.14-9.63-15.64-13.82-23.85-4.19-8.23-9.58-15.76-15.96-22.51-2-2.12-4.05-4.38-6.78-1.17-9.7,11.44-15.93,24.68-19.93,37.95Zm730.76-199.66c-5.79-.42-11.64-2.43-17.26.71-3.62,2.03-5.11,4.35-.26,6.15,21.19,7.86,40.59,19.34,60.69,29.41,7.4,3.71,18,.82,20.33-5.09,3.4-8.62,6.91-17.15,11.33-25.29,2.17-4.01.97-6.43-3.39-7.39-6.02-1.33-12.12-1.99-18.26-2.66-18.02-1.99-35.45,3.02-53.18,4.16Zm-664.64,26.25c-1.28-6.01.3-11.06,1.52-15.88,3.01-11.83.89-22.43-5.57-32.64-2.54-4.02-3.98-5.73-7.87-1.25-10.98,12.62-20.06,25.64-17.86,43.81.84,6.92-.3,14.14-1.07,21.16-.48,4.38.04,6.73,5.12,7.68,13.87,2.59,26.89,0,39.76-4.93,3.48-1.33,5.13-2.77,3.47-6.75-3.62-8.67-6.94-17.47-10.54-26.63-4.09,4.59-2.44,10.77-6.97,15.43Zm-87.39-34.55c2.38,12.07,2.63,24.4,4.28,36.55,1.07,7.85,5.76,13.32,14.73,13.84,6.11.35,12.23,1.16,18.26,2.27,12.18,2.23,12.99,1.36,13.99-11.3.89-11.29-2.38-22.64.98-33.89,1.23-4.11-2.11-3.48-4.54-3.28-8.45.69-16.37-1.15-24.27-4.15-5.7-2.17-11.83-3.27-17.82-4.57-3.41-.74-6.37-.24-5.6,4.54Zm702.4,251.19c1.12-.25,1.84-.22,2.29-.55,10.16-7.38,23.1-10.24,31.9-19.87,9.05-9.91,8.15-14.61-3.54-20.72-19.45-10.17-41.64-9.73-62.02-16.36-5.4-1.76-6.14,1.95-3.75,6.47,9.08,17.19,21.97,31.85,32,48.41.72,1.19,2.23,1.9,3.12,2.62Zm-439.84-431.12c-16.27-8.5-31.33-15.6-44.67-25.61-14.64-10.98-31.25-18.46-47.62-26.35-1.79-.86-3.89-2.86-5.85-.79-1.75,1.86-.08,4.06.4,6.09,2.48,10.49,9.08,18.41,17.58,24.12,7.02,4.73,11.76,11.76,21.83,14.11,6.59,1.54,10.31,14.99,15.51,22.98,2.49,3.83,6.14,5.08,10.44,2.97,10.44-5.12,21.04-9.98,32.39-17.52Zm-347.41,452.3c-7.75,3.01-12.8,1.82-17.77.95-5.96-1.05-8.68,1.16-8.5,7.34.2,6.77.16,13.55-.02,20.33-.46,17-.52,16.88,17.1,15.47,9.02-.72,16.61-2.64,20.65-12.34,3.85-9.25,6.25-19.37,13.94-26.8,3.43-3.31.2-4.68-2.68-5.4-8.31-2.08-15.04-6.79-21.44-12.24-5.9-5.03-12.71-8.67-19.71-11.93-2.14-1-4.43-2.61-6.57.2-3.94,5.17-.74,16.37,5.5,18.5,5.6,1.91,11.32,3.46,19.51,5.93Zm299.06-185.69c1.2-6.75-3.4-11.74-5.15-17.55-.67-2.22-2.59-2.26-4.56-1.92-17.59,3.06-35.6,2.41-53.13,6.22-6.54,1.42-7.41,3.02-3.17,8.51,11.88,15.36,28.14,25.66,42.68,37.94,3.44,2.9,6.35-.18,8.89-2.3,9.64-8.05,12.84-19.15,14.44-30.91Zm-91.39,95.78c3.34-3.61,7.53-7.67,11.13-12.2,3.1-3.9-1.15-6.09-3.03-8.53-10.84-14.03-24-25.57-38.61-35.5-12.05-8.19-11.98-8.14-19.61,3.7-2.83,4.4-5.76,8.8-9.18,12.74-4.9,5.64-3.94,8.78,2.47,12.85,16.9,10.73,38.36,11.94,53.49,26.12.38.36,1.14.3,3.34.82Zm611.15-389.16c-6.58,1.72-15.06,4.74-23.8,6.05-12.86,1.92-22.04,6.87-25.62,20.54-1.27,4.84-1.06,6.53,3.66,6.01,7.17-.79,13.06,2.07,19.22,5.05,6.88,3.33,14.17,5.82,21.31,8.62,5.09,1.99,8.57-.83,10.78-4.68,5.45-9.48,18.59-15.83,15.82-28.28-1.7-7.65-9.67-13.28-21.36-13.31Zm-581.22-39.75c-5.83-7.11-7.42-14.01-10.09-20.46-2.28-5.48-4.23-12.45-11.19-13.75-13.9-2.59-27.86-5.1-42.06-5.62-6.79-.25-7.67,3.12-5.99,8.85,1.63,5.59,3.06,11.32,3.76,17.09,1.47,12.1,5.81,15.97,17.84,16.08,15.34.14,30.23-5.54,47.73-2.19Zm853.46,372.74c2.46-.17,4.91-.34,7.37-.51,8.69-.59,16.46-5.42,19.51-12.13,3.17-6.97-6.27-10.7-10.55-15.51-2.93-3.3-7.35-5.1-11.46-5.6-17.41-2.12-34.84-3.59-52.06,1.99-5.81,1.88-5.38,4.15-2.61,8.49,11.72,18.38,31.69,18.79,49.81,23.26Zm46.52-70.88c-41.35-6.93-77.42,2.79-107.28,32.62,1.94,1.17,4.15.57,6.12-.1,17.88-6.14,36.16-7.04,54.79-4.7,10.27,1.29,19.88-1.11,27.57-8.13,6.55-5.98,12.31-12.82,18.8-19.69ZM222.23,1085.24c20.89,20.92,35.37,23.96,56.37,13.65,4.51-2.22,8.43-4.07,2.44-9.99,25.55,5.28,61.94-21.02,59.9-43.09-21.56,14.09-45.02,23.57-67.12,35.68-2.82,1.55-4.23,4.22-5.92,6.86-3.75,5.89-6.9,5.65-9.98-.47-.8-1.59-1.81-2.59-3.41-2.6-10.04-.08-20.08-.04-32.29-.04Zm212.8-649.89c27.54,5.69,54.59,9.48,81.05,16.26,3.25.83,5.24-.41,6.88-3.09,2.09-3.41,1.58-6.17-1.1-9.11-6.48-7.11-14.34-12.51-21.76-18.49-4.08-3.29-6.89-3-11.26,3.65,2.35-10.41-1.78-11.89-7.9-11.17-4.58.54-9.4.34-13.69,1.76-12.02,3.97-25.34,6.17-32.22,20.19Zm762.29,385.8c.48-4.77-2.73-7.04-5.94-9.67-21.13-17.37-45.92-27.19-71.63-35.16-2.12-.66-5.18-2.73-6.16.97-.86,3.29-3.39,7.14.35,10.29,2.34,1.97,4.78,4.23,7.57,5.19,21.4,7.34,37.4,22.08,52.8,37.78,4.33,4.41,9.46,7.91,15.44,9.84,2.86.92,7.38.29,4.64-3.11-4.84-6-4.98-8.98,2.41-11.72.63-.23.36-2.88.51-4.41Zm-472.17-300.15c.62-9.9-.88-19.68-1.64-29.5-.22-2.79-.24-5.72-2.54-7.68-7.27-6.22-14.71-12.3-23.89-15.5-5.57-1.95-20.24,8.78-17.89,13.22,3.6,6.8,6.03,15.11,14.05,18.73,10.46,4.73,14.96,13.21,15.64,24.19.26,4.3.25,8.63.69,12.92.67,6.44,6.43,9.14,10.97,9.58,5.01.49,4.11-5.8,4.47-9.33.55-5.49.15-11.08.15-16.62Zm144.77-104.4c-10.04,6.17-19.13,11.94-23.95,21.17-10.54,20.2-20.58,40.75-26.41,62.98-.48,1.82-2.03,4.05,1.06,5.95,12.72-10.05,25.48-20.18,38.31-30.23,2.71-2.12,3.01-5.12,3.86-8.09,4.69-16.4,3.46-33.55,7.13-51.79Zm-227.1-187.42c6.95-4.34,12.31-7.82,17.81-11.09,5.07-3.02,7.89-7.49,9.63-13,1.66-5.26-.51-7.04-5.34-6.36-10.34,1.46-19.57,5.05-26.11,13.88-7.32,9.89-14.08,20.37-22.54,29.18-8.88,9.24-9.49,19.12-7.32,30.54,1.05,5.53,3.42,8.07,8.64,5.85,3.53-1.5,9.17-3.21,3.68-8.94-2.11-2.2-.39-3.11,1.46-3.87,17.34-7.11,20.55-25.92,34.45-37.98-6.23-.53-8.65,3.14-14.36,1.77Zm310.38,59.79c14.6-12.98,30.24-23.7,45.95-34.32,1.22-.82,2.05-2.29,2.91-3.57,6.53-9.72,13.07-19.45,19.5-29.23,1.26-1.92,3.79-3.8,1.73-6.5-1.66-2.18-4.33-2.42-6.78-2.03-7.3,1.17-14.72,2.02-21.81,4.01-8.58,2.41-11.77,13.81-6,19.56-21.27,11.82-39.16,37.21-35.51,52.07Zm167.6,309.37c-3.02-7.74-6.04-16.13-9.57-24.29-2.2-5.09-6.74-6.04-11.68-4.44-9.06,2.94-18.35,5.44-27.01,9.33-16.22,7.27-16.1,7.78-5.81,21.81,2.91,3.97,5.76,7.98,8.72,11.92,2.12,2.83,4.82,4.03,7.92,1.62,9.12-7.09,19.65-9.71,30.93-10.45,2.81-.18,6.53-.29,6.5-5.49Zm-295.44-170.47c-13.96,13.41-30.34,21.93-45.37,32.46-4.75,3.33-6.36,7.09-5.71,12.43,1.49,12.19,7.68,22.59,12.85,33.35,1.21,2.51,1.28,7,5.34,6.44,3.13-.43,2.92-4.31,3.67-6.87,6.95-23.7,15.4-46.75,28.41-67.92,1.41-2.3,2.97-4.76.81-9.89Zm-451.66-171.1c1.9-.31,4.88.78,6.13-2.08,1.22-2.8-1.2-4.56-2.92-6.21-15.13-14.42-31.6-27.11-49.15-38.5-6.28-4.08-12.29-4.53-19.28-2.85-5.16,1.24-5.62,3.3-3.73,7.77,5.53,13.08,11.79,25.05,27.6,28.29,4.39.9,8.38,3.79,12.55,5.78,8.98,4.31,18.47,6.77,28.8,7.79Zm17.79,552.49c.02-5.26-15.11-23.42-20.03-24.43-.59-.12-1.34-.27-1.8-.02-11.32,6.24-27.16,5.9-31.68,22.06-1.46,5.21-8.23,11.31-5.44,14.65,3.98,4.75,11.98,1.8,18.24.89,6.67-.96,12.99-2.23,19.69,1.18,16.63,8.45,17.16,7.96,20.39-11.11.2-1.21.46-2.41.62-3.23Zm575.24-215.77c-.24,3.95.11,6.9,3.49,9.29,12.95,9.13,30.1,5.26,35.9-6.64,2.65-5.43,6.79-10.35,11.05-14.73,4.41-4.53,2.79-7.28-1.19-10.46-6.69-5.34-15.6-5.46-22.74-9.82-2.4-1.46-3.81,1.01-4.96,2.87-4.26,6.9-10.04,12.47-15.99,17.85-3.65,3.3-5.94,7.04-5.56,11.63Zm114.93-46.08c-18.37-11.31-37.18-19.32-56.57-26.09-2.36-.82-4.17.3-5.75,1.97-4.47,4.69-8.87,9.45-13.45,14.03-3.28,3.28-2.25,5.2,1.59,6.68,6.62,2.54,13.64,4.38,19.76,7.83,18.82,10.6,35.98,4.28,54.42-4.41Zm-671.52,244.68c-.62,3.3-.29,5.44,1.31,7.09,6.84,7.07,13.17,14.67,22.17,19.34,4.82,2.51,7.53,1.62,8.67-3.72.57-2.71.97-5.47,1.75-8.11,3.58-12.16,1.46-25.2,5.75-37.24.9-2.53,3.09-4.95.11-7.48-2.88-2.44-6-3.01-9.37-1-5.82,3.47-11.82,6.68-17.42,10.48-7.6,5.15-10.28,13.53-12.96,20.63Zm141.39-144.15c-2.21-4.76-7.3-7.7-12-11.08-7.24-5.22-17.19-6.1-22.84-13.59-4.48-5.93-7.42-5.28-13.05-.76-6.23,5.01-6.25,8.58-1.54,13.99,1.99,2.29,3.44,5.12,4.84,7.86,5.12,10.05,12.02,18.57,21.07,25.35,2.19,1.64,4.05,4,7.3,2.7,1.99-.8,16.16-21.26,16.22-24.47Zm591.37,29.82c2.08,6.76,11.12,7.05,13.39,12.91,5.38,13.86,14.52,25.63,20.54,39.14,3.83,8.59,8.19,17.32,15.43,23.91,1.52,1.38,3.09,3.75,5.41,2.72,2.53-1.13,1.3-3.83,1.03-5.8-1.27-9.22-1.23-18.44-.27-27.66.34-3.26-.39-6.07-2.24-8.7-4.61-6.55-9.08-13.2-13.8-19.67-1.9-2.6-3.89-5.62-8.97-4.3,2.53,7.27,4.99,14.33,7.45,21.38-.79.59-1.58,1.17-2.37,1.76-6.94-17.26-12.41-36.1-35.61-35.68Zm-372.47-243.65c-.66,6.69,2.12,7.12,7.02,4.26,11.15-6.5,22.71-12.23,33.12-20.04,12.26-9.2,12.47-8.92,7.52-23.03-2.93-8.33-12.3-11.13-18.82-5.06-8.1,7.55-15.57,15.85-21.17,25.45-3.36,5.77-6.97,11.64-7.66,18.41Zm-236.63-247.32c7.04,12.07,15.17,23.39,19.72,36.57,1.84,5.34,4.95,9.12,9.5,12.01,9.36,5.94,19.24,11.21,25.69,20.75,2.24,3.32,3.85,2.78,6.01-.51,7.03-10.7,4.09-23.66-10.13-31.73-18.39-10.44-35.15-22.67-50.8-37.09Zm563.73,39.07c-6.03,1.85-11.56,6.14-15.41,12.95-7.09,12.56-13.47,25.62-23.91,35.96-3.48,3.45-9.02,6.29-10.1,10.35-1.6,5.98,6.99,6.29,9.56,10.76,3.86,6.73,7.24,4.5,10.43-.99,12.2-21,20.08-44.25,33.57-64.58,2.05-3.09.84-4.53-4.14-4.46Zm-529.69,599.93c7.65-10.38,19.8-7.48,29.51-11.36,5.9-2.36,5.29-10.72-.42-13.79-4.88-2.63-10-4.81-15.02-7.17q-16.86-7.93-27.93,6.76c-6.5,8.63-6.27,9.63,2.46,15.69,2.76,1.92,5.13,4.4,7.68,6.62,1.11.97,2.21,1.93,3.72,3.25Zm550.2-410.4c-33.61,24.25-73,39.42-103.4,68.13-1.09,1.03-2.55,1.9-3.98,2.27-5.36,1.38-5.95,5.37-6.12,9.95-.12,3.42,1.72,5.06,4.44,6.25,4.92,2.17,7.45-1.55,10.14-4.36,25.1-26.19,53.14-48.7,84.08-67.63,6.06-3.71,11.42-8.23,14.84-14.61Zm-663.05,492.53c11.08.88,18.73-1.45,26.51-2.36,7.67-.9,15.16-2.62,22.02-6.24,5.82-3.07,7.85-6.84,3.11-13.17-6.26-8.34-13.78-13.51-24.26-14.86-5.4-.7-8.98,1.03-9.44,5.98-1.09,11.97-5.85,21.77-17.94,30.65Zm435.91-382.63c-20.34,6.23-40.1,7.78-54.16,23.31-3.45,3.81-7.42,6.93-3.55,12.48,2.63,3.77,16.88,7.95,19.76,5.53,13.76-11.61,27.81-23.01,37.94-41.31Zm-485.72-262.24c8.43,8.99,15.71,16.77,23.01,24.54,2.1,2.23,4.79,3.19,7.54,1.93,8.44-3.86,17.3-2.92,26.23-2.28-1.81-6.58-3.97-12.66-5.04-18.92-.82-4.84-3.07-6.75-7.68-7.44-14.45-2.18-28.47.66-44.06,2.17Zm618.61,120.29c25.08-11.8,50.68-19.77,77.89-22.96-18.97-5.52-38.22-8.45-57.68-10.05-2.24-.19-4.25.71-5.69,2.53-7.07,8.94-12.46,18.7-14.52,30.48Zm-516.47-46.99c-6.13-16.85-35.4-40.92-52.46-43.09-4.27-.54-8.63-.65-12.8.94-2.4.91-5.43,2.44-3.35,5.17,4.18,5.48,6.73,13.28,14.51,14.7,16.11,2.93,30.19,10.35,44.13,18.33,3.06,1.75,5.83,4.55,9.96,3.95Zm166.1,32.32c-5.56-8.86-10.45-16.8-15.51-24.64-1.8-2.79-4.02-2.26-6.09-.08-6.56,6.91-13.37,13.6-19.63,20.78-4.28,4.92-1.06,16.87,5,17.63,10.66,1.34,21.49,1.49,31.55-3.75,3.28-1.71,3.07-3.18.39-5.29-3.75-2.95-7.34-6.1-12.9-10.77,7.74.46,10.55,5.88,17.2,6.12Zm292.26,125.98c-6.79-.3-9.01,1.71-10.08,6.66-2.45,11.28-2.52,20.94,10.86,25.27,1.97.64,3.66,2.25,5.38,3.55,6.9,5.24,11.57.49,15.91-3.88,3.42-3.44,5.52-19.37,3.43-21.65-.21-.22-.46-.42-.73-.57-8.4-4.69-17.41-7.65-24.77-9.39Zm-180.4-243.16c-.85,8.52,3.82,17.31,7.6,26.35.91,2.18,2.4,4.59,4.55,2.24,8.4-9.18,20.56-14.82,25.49-27.28,1.52-3.84.58-5.47-3.39-6.55-6.49-1.77-12.96-3.79-19.2-6.28-13.08-5.23-15.21-3.98-15.05,11.52ZM184.39,882.08c-.45-.58-.91-1.16-1.36-1.74,3.96-2.68,7.97-5.3,11.87-8.08,2.25-1.61,3.15-4.24,1.89-6.53-1.86-3.39-4.29-.82-6.16.34-11.49,7.12-22.88,14.38-34.33,21.55-3.7,2.31-4.39,5.45-3.44,9.52,1.05,4.47,3.89,5.64,8.06,5.8,13.13.48,24.64-4.25,35.7-10.6,5.97-3.43,3.91-8.94,2.13-13.06-2.07-4.8-5.64-.46-8.48.38-2.02.6-3.92,1.6-5.87,2.41Zm602.93-510.56c12.31-10.56,20.07-21.84,26.42-33.48,3.97-7.27-1.82-16.06-3.4-24.14-.65-3.32-1.43-6.66-2.55-9.84-.97-2.76-.97-7.17-4.57-7.25-3.64-.08-4.21,4.29-4.69,7.04-3.78,21.73-7.25,43.51-11.21,67.67Zm-335.15-55.08c8.77,12.72,18.34,21.76,26.17,32.12,7.43,9.83,16.81,12.47,28.19,11.89,4.54-.23,8.07-1.7,8.57-6.49.47-4.53-2.08-7.8-6.53-8.7-6.61-1.34-11.61-5.3-16.82-9.13-11.36-8.34-23.75-14.66-39.58-19.68Zm897.14,419.73c-.96-14.98-8.45-27.75-17.51-39.5-5.57-7.21-12.37-2.91-18.11.84-6.12,3.99-.47,7.54,1.21,10.8,6.25,12.16,14.55,22.87,24.63,32.11,2.3,2.11,4.01,6.72,7.91,4.82,3.06-1.48,1.27-5.62,1.87-9.06ZM356.09,191.55c14.07,10.5,47.16,20.06,63.26,18.91,1.46-.11,3.42.4,3.87-1.51.22-.91-.58-2.28-1.28-3.15-10.75-13.41-25.44-19.94-41.8-22.77-8.8-1.53-15.03,5.78-24.04,8.53Zm240.58,464.09c.3-7.18-3.64-12.34-8.26-16.93-4.2-4.18-4.26-14-10.08-13.38-5.67.61-8.13,9.25-12.05,14.33-2.01,2.6-5.49,5.45-3.49,8.87,5.6,9.52,11.53,18.98,22.58,23.33,2.52.99,5,1.16,6.38-1.6,2.32-4.65,4.47-9.4,4.92-14.61Zm296.34-49.29c-.9-2.84-3.42-3.05-5.01-4.37-9.05-7.51-20.51-6.33-28.89-2.37-9.32,4.4-14.87,15.29-20.43,24.41-2.24,3.68.9,9.57,3.99,12.36,2.8,2.52,5.99-1.76,8.34-3.94,12.31-11.44,26.27-20.2,42.01-26.08Zm-259.99-147.61c3.55-10.06-5.05-14.58-3.48-23.59,2.46-14.11-3.2-28.43-15.65-38.26-1.4-1.11-2.53-3.14-4.55-2.5-2.17.69-1.63,3-1.85,4.75-.78,6.07-1.14,12.24-2.44,18.19-1.38,6.33.22,11.88,4.1,16.32,7.21,8.26,15.1,15.94,23.88,25.08Zm-174.58-111.42c-17.67-5.85-29.18-20.99-45.53-28.62-4.46-2.08-8.95-4.1-13.49-6-3.77-1.58-7.78-1.95-11.8-1.27-2.41.41-5.26.98-6,3.62-.87,3.12,2.24,4.04,4.2,5.25,7.34,4.53,15.55,7.98,22.02,13.5,14.76,12.59,32.92,11.21,50.6,13.52ZM109.19,899.91c10.38-10.71,26.43-12.73,35.6-24.84.42-.55,1.5-.85,2.28-.85,13.85-.05,18.48-4.18,21.66-18.22,1.61-7.09-1.81-8.47-7.37-7.29-2.55.54-5.01,2.34-7.09,4.07-12.32,10.21-24.66,20.4-36.69,30.94-4.52,3.96-8.44,8.72-8.38,16.19Zm391.65-218.42c-9.31-9.02-11.87-21.65-18.61-31.85-8.2-12.41-8.08-12.49-18.13-2.09-2.35,2.43-4.49,5.11-7.07,7.26-4.81,4.01-3.36,6.77,1.02,9.96,12.67,9.26,27.31,13.48,42.8,16.72Zm794.72-135.57c36.76,3.24,62.84-2.59,71.14-16-17.06,0-33.92-.22-50.78.08-10.44.19-16.43,6.64-20.36,15.92ZM80.29,881.48c18.11,4.7,48.39-11.89,60.41-33.29-24.49,3.66-47.65,8.86-60.41,33.29Zm57.49,31.87c-8.07,1.75-17.7,3.47-26.85,7.26-5.82,2.41-3.01,8.15-5.24,11.86-.47.78-.85,1.83-1.56,2.18-2.16,1.08-5.14,1.7-3.29,5.02,1.58,2.84,4.32,1.25,6.65.97,12.15-1.43,23.65-6.57,36.16-6.12,4.5.16,5.8-2.44,4.46-6.72-1.01-3.2-1.75-6.51-2.28-9.82-.63-3.89-2.97-5.05-8.05-4.65Zm394.12-438.91c1.14,4.75,4.83,7.46,8.53,10.26,9.81,7.43,20.35,14.13,28.14,23.81,6.83,8.48,11.97,1.15,16.21-2.01,5.38-4.02-.58-7.7-3.14-10.2-13.65-13.28-28.34-24.72-49.74-21.86Zm163.29-301.44c.6-5.84.81-11.62-1.82-17.16-4.37-9.22-11.64-4.19-17.74-3.51-6.07.68-5.79,5.77-4.75,10.02,1.76,7.14,5.22,13.99,6.05,21.18,1.25,10.73,8.58,8.75,14.93,8.25,8.71-.67,2.79-6.83,3.26-10.53.34-2.71.07-5.5.07-8.26Zm481.83,362.81c-13.51-8.68-24.54-15.94-35.77-22.88-3.22-1.99-7.45-4.89-9.89,1.06-2.91,7.1-5.55,14.34-8,21.61-1.66,4.93.86,6.58,5.18,4.74,6.13-2.61,11.63-2.84,18.61-2.01,8.54,1.02,18-1.89,29.86-2.52ZM201.11,914.75c-.68-3.09,1.57-7.08-1.65-8.66-3-1.48-5.63,1.67-7.92,3.54-7.85,6.39-15.6,12.89-23.25,19.51-2.15,1.86-5.81,4.19-2.2,7.39,5.53,4.89,12.63,10.71,19.13,9.49,7.03-1.31,11.65-9.43,13.91-16.91,1.4-4.63,1.39-9.69,1.98-14.36ZM918.94,358.87c17.2-8.71,31.91-20.42,46.32-32.48,3.7-3.1,6.39-7.48,9.22-11.51,2.78-3.95.97-5.85-3.33-5.33-6.77.81-13.21,2.64-18.87,6.84-15,11.14-23.23,27.54-33.34,42.48ZM248.11,702.76c9.29,3.66,16.65,5.86,23.33,9.36,9.91,5.2,17.76,4.52,23.91-5.49,1.9-3.09,7.55-5.24,3.58-9.79-3.61-4.13-6.63-10.59-13.82-8.74-12.14,3.12-23.73,7.75-37,14.66Zm133.23-425.46c.51-12.92-.33-13.47-10.58-9.15-5.53,2.33-9.93,5.99-13.48,10.79-1.94,2.63-3.05,5.26-1.4,8.49,3.07,6.01,5.68,12.25,10.06,17.51,4.28,5.14,7.49,5.3,10.93-1.08,4.86-9.02,6.81-18.27,4.46-26.57Zm173.23,79.01c9.01.94,15.02-2.78,19.7-7.54,5.26-5.35,1.44-11.62-1.25-16.95-2.65-5.26-6.93-3.64-11.07-1.41-8.13,4.39-16.27,8.78-24.56,12.88-5.51,2.72-4.76,5.28-.71,8.72,5.77,4.91,13,2.83,17.88,4.3ZM126.76,729.3c3.85,5.03,7.52,6.56,10.77,8.61,10.9,6.87,23.16,11.35,33.54,19.17,1.8,1.36,3.36,4.48,6.1,2.96,2.43-1.34.83-4.68,1.81-6.75,3.07-6.5-4.87-15.91,5.42-20.47.14-.06-.14-1.09-.35-2.59-18.43,3.81-36.94,3.01-57.29-.93Zm441.85,196.86s0-.09,0-.14c-3.98,0-7.97.08-11.95-.02-8.98-.22-8.35,6.28-8.44,12.12-.09,6.18,2.07,9.9,9.35,8.98,6.35-.81,12.82-1.09,19.23-.99,7.18.12,11.5-1.38,11.51-10.1,0-8.7-4.15-10.51-11.43-9.89-2.74.23-5.51.04-8.27.04Zm-211.23-573.6c-.77,6.5,1.88,8.6,8.84,4.64,4.79-2.73,10.05-4.68,14.66-7.66,5.13-3.32,16.37-3.44,15.47-6.9-1.74-6.71-10.26-10.47-16.17-15.21-.94-.75-2.16-1.15-3.25-1.7-2.14-1.08-4.12-.86-5.96.72-7.69,6.61-13.47,14.25-13.59,26.12Zm78.47.3c9.06,7.24,15.53,14.35,21.15,22.5,5.94,8.62,15.46,10.4,25.51,9.17,4.62-.56,4.58-2.57,2.38-6.2-10.75-17.73-26.08-26.77-49.04-25.47Zm82.26,119.25c-1.33-3.74-4.59-3.44-6.98-4.4-9.78-3.96-20.26-5.1-30.47-7.32-17.37-3.79-33.89-11.58-52.21-10.91-2.74.1-5.96-1.06-6.9,2.64-1,3.95,2.45,4.35,5.03,5.12,29.78,8.81,60.94,8.94,91.52,14.88Zm-151.67,208.38c4.6,8.54,8.51,16.14,12.74,23.56,3.88,6.8,9.06,12.41,16.22,15.97,3.11,1.55,5.58,1.82,7.89-1.59,5.05-7.47,3.33-18.26-4.63-22.49-10.19-5.42-20.81-10.03-32.22-15.45Zm264.98,219.98c8.02,8.68,15.97,17.48,24.18,26.04,2.08,2.16,4.84,3.78,7.52,5.22,2.79,1.5,5.37.08,7.67-1.59,1.33-.97,2.31-2.62,1.16-3.95-5.31-6.16-5.78-14-7.9-21.3-.87-3.01-3.48-4.33-6.41-4.37-9.06-.13-18.11-.05-26.23-.05Zm-235.53-316.09c-11.96-1.87-21.91-5.93-30.41-13.53-3.68-3.29-8.72-3.14-12.91-.4-2.5,1.64-3.23,5.05-1.68,7.5,6.27,9.92,15.77,16.84,25.99,21.38,6.46,2.87,8.64-7.11,13.66-10.16,1.73-1.05,3.08-2.72,5.35-4.79ZM86.64,912.4c4.97.79,7.93-.97,9.71-6.59,4.96-15.62,6.88-15.03-9.93-14.76-1.84.03-3.82.41-5.49-.12-8.48-2.71-13.8,2.2-19.21,7.4-3.18,3.06-3.94,5.52.83,7.45,7.66,3.1,15.3,6.36,24.1,6.63ZM389.24,274.75c-.45,5.75.87,10.2,2.04,14.65,1.19,4.49,2.53,9.82,7.76,10.41,7.04.79,14.24-.73,20.25-4.69,3.03-2-.11-4.36-1.61-6.01-5.58-6.12-11.17-12.25-17.06-18.07-2.48-2.45-4.93-6.79-8.99-5.17-4.28,1.71-1.89,6.52-2.39,8.89Zm905.6,423.76c-16.47-7.75-31.76-11.48-47.96-11.32-2.63.03-6.13-.63-7.03,2.81-.87,3.36,1.35,5.97,4.22,7.44,16.01,8.19,32.25,10.99,50.77,1.06Zm-636.61,153.72q-8.45-13.13-20.83-13.2c-3.37-.03-6.77-.1-10.11-.54-10.18-1.36-13.36.7-16.29,10.93-2.26,7.9-1.09,8.57,7.17,8.18,13.16-.61,24.79-9.92,40.06-5.37Zm457.92-209.06c5.91-.77,11.3-3.11,16.6-5.54,2.52-1.15,7.18-1.98,5.15-6.03-2.13-4.26-3.07-11.18-10.04-10.24-8.2,1.11-16.35,3.01-24.32,5.27-3.74,1.06-8.23,3.74-8.48,7.59-.22,3.44,5.21,3.36,7.9,5.26,3.91,2.75,8.7,2.81,13.2,3.68Zm-469.96-447.17c2.94-.83,5.55-1.6,8.18-2.29q17.64-4.63,13.44-22.31c-.56-2.38-.97-4.8-1.53-7.18-.47-2,.07-4.69-2.4-5.56-2.87-1.01-4.42,1.47-6.03,3.19-8.74,9.33-13.68,20.08-11.66,34.14Zm281.58,128.88c-.84-.74-1.68-1.49-2.52-2.23-5.15,5.54-10.14,11.24-15.49,16.59-14.87,14.85-27.1,31.82-39.59,48.6-1.22,1.63-3.46,3.36-1.46,5.57,2.08,2.31,4.44,1.4,6.47-.48,1.36-1.25,2.67-2.55,4.04-3.79,20.34-18.4,28.35-45.76,48.56-64.26Zm-579.78,269.59c-7.67,15.06,6.01,21.54,12.4,31.15-5.91,1.01-6.95-5.59-11.73-4.36-.4,5.28,2.32,9.59,3.72,14.21.62,2.07,1.76,4.09,4.64,3.16,2.85-.92,16.19-21.97,15.35-24.64-.42-1.34-1.58-2.65-2.75-3.53-7.08-5.34-14.26-10.56-21.64-15.99Zm679.66,86.37c4.18-1,9.84-2.6,14.5-6.26,2.47-1.94,6.67-3.23,5.72-7.47-.78-3.45-4.44-3.91-7.28-4.93-3.75-1.35-7.54-2.65-11.38-3.69-5.24-1.42-11.61-5.5-15.73-1.58-4.7,4.48,1.51,9.97,2.74,15.05,1.22,5.04,3.53,9.33,11.44,8.88Zm-448.69-235.51c.6-2.86-1.91-5.65-6.36-7.81-7-3.4-14.37-5.5-21.85-7.36-2-.5-4.27-1.92-6.08.05-2.17,2.36-.28,4.63.77,6.77,5.32,10.9,15.78,16.17,25.18,22.46,3.23,2.16,5.88.36,6.56-3.61.47-2.73.93-5.47,1.78-10.49Zm417.62,209.1c-9.85,2.2-20.92,4.66-31.98,7.15-1.51.34-3.18.81-3.11,2.72.07,1.84,1.79,2.57,3.24,2.74,14.63,1.7,29.02,4.66,43.29,8.24,3.82.96,4.34-1.23,3-4.18-2.02-4.46-4.11-8.9-6.35-13.26-1.39-2.7-3.77-3.93-8.1-3.4Zm193.32-48.6c-17-1.83-32,4.03-46.84,10.5-3.47,1.51-3.39,4.26-1.52,6.82,2.18,2.98,3.3,8.63,8.58,6.47,14.42-5.87,27.77-13.67,39.78-23.8Zm-27.51-14.8c-12.73-6.18-23.4-11.36-34.07-16.54-.55-.27-1.1-.56-1.67-.77-2.88-1.04-6.41-1.57-5.39,2.84,1.86,7.99,2.58,17.34,8.88,22.69,4.38,3.72,10.96-1.3,16.44-2.85,4.66-1.32,9.2-3.1,15.81-5.36Zm-321.41-348.96c3.81-4.32,7.9-8.42,11.36-13,6.04-8,11.14-16.82,9.34-27.2-2.16-12.42.57-23.84,4.85-35.17,1.76-4.66,3.96-9.15,5.96-13.72-17.11,27.26-20.99,59.18-31.52,89.09Zm-171.78,325.3c-5.62-16.14-11.18-32.3-16.92-48.4-.73-2.05-2.21-3.96-4.87-1.64-3.68,3.2-7.02,20.72-3.86,24.56,7.55,9.2,14.99,18.58,25.66,25.47Zm-204.36,368.36c7.35,4.59,12.58,7.52,17.46,10.97,16.27,11.51,16.26,11.61,26.62-5.67,1.69-2.82,4.04-5.43,4.06-10.46-14.85,6.5-30.28,4.33-48.13,5.16Zm-110.98-508.37q4.05-17.99-11.86-25.75c-4.41-2.15-8.8-4.37-13.31-6.31-3.37-1.45-6.59-4.16-10.96-2.73,4,9.35,20.92,25.6,36.13,34.79Zm259.93,111.54c-2.27-6.92-6.73-13.75-12.9-18.69-4.61-3.69-8.98,1.79-13.36,3.48-6.21,2.4-6.22,6.42-1.86,10.44,5.42,4.99,11.31,9.51,18.24,12.34,5.13,2.1,9.64-.97,9.88-7.57Zm15.06-247.2c13.05,2.85,23.92,7.56,32.57,16.43,1.49,1.53,3.59,2.83,5.49.3,3.54-4.69-3.22-23.76-9.15-24.48-9.75-1.19-19.82-2.3-28.91,7.75Zm529.42-63.1c-4.63-3.66-7.51-5.84-10.28-8.14-2.83-2.35-5.66-4.71-8.31-7.26q-10.33-9.94-18.54,1.5c-.89,1.25-1.73,2.53-2.66,3.75-3.03,3.96-1.35,5.78,2.79,7.2,11.27,3.86,22.76,4.19,37,2.95Zm-582.17,618.34c-1.08,6.08,1.06,9.78,8.63,9.79,9.63.02,11.41-2.68,12.48-17.8.55-7.82-3.47-9.43-9.88-9.47-8.82-.05-10.76,2.75-11.24,17.48Zm-47.31-132.04c0,.12-.02.24-.02.36-3.38,0-6.77-.19-10.12.07-1.92.15-3.3,1.61-3.85,3.54-.64,2.27.85,3.44,2.58,4.28,7.2,3.49,14.26,7.34,21.68,10.26,6.18,2.43,12.02-1.92,13.36-8.84,1.5-7.73-3.93-7.67-8.94-8.18-4.9-.49-9.79-1-14.68-1.5ZM333.42,190.12c-4.77.49-3.9,3.7-2.64,6,5.58,10.17,15.08,16.13,25.1,20.72,4.17,1.91,8.77-1.87,12.14-5.06,1.7-1.61.19-3.49-1.16-4.76-9.53-8.93-22.35-11.28-33.43-16.91Zm-82.39,689.39c-22.56,1.43-28.2,20-36.93,36.05,16.16-8.5,34.8-13.84,36.93-36.05Zm-24.48-50.61c-14.16.31-28.12.04-41.58,4.35-3.3,1.06-5.74,2.89-5.31,6.43.43,3.44,3.8,3.53,6.47,3.96,16.08,2.56,28.81-4.48,40.43-14.74ZM989.63,268.94c-14.71,11.27-27.35,21.54-39.88,34.18,29.12-1.81,32.66-4.82,39.88-34.18ZM179.83,1043.24c5.1-3.81,8.34-6.07,11.4-8.55,9.31-7.55,16.13-17.89,26.85-23.89,2.02-1.13,5.14-2.2,3.84-5.35-1.44-3.5-4.55-3.44-7.86-2.56-9.53,2.53-17.68,6.16-21.56,16.62-2.75,7.43-7.45,14.14-12.67,23.73Zm738.88-405.98c-.18-.42-.36-.83-.54-1.25,4.28-2.41,8.57-4.82,12.85-7.23-12.45,1.1-24.26,3.83-36.01,6.73-2.04.5-4.47,1.65-3.98,4.24.4,2.13,2.85,2.02,4.65,2.03,13.19.1,26.38.24,39.56.09,2.8-.03,7.07.2,6.46-4.38-.49-3.65-4.02-4.51-7.25-3.91-5.29.99-10.49,2.42-15.73,3.67Zm-335.87,106.13c1.67.25,3.98-.15,5.46-2.64,1.77-2.99-.45-4.45-2.31-6.11-6.25-5.58-13.46-9.71-20.65-13.88-3.88-2.25-6.62-1.04-7.95,2.9-1.23,3.67-5.78,8.22.13,11.12,7.7,3.78,15.86,6.76,25.31,8.61Zm15.05-288.59c-2.48,4.34-2.93,7.69-1.4,10.85,2.92,6.06,6.09,12.01,9.39,17.87,1.56,2.76,2.4,7.62,6.43,6.64,4.28-1.04,8.12-4.05,12.01-6.43,1.2-.73.81-2.21-.18-3.19-8.63-8.49-17.28-16.96-26.24-25.75Zm308.44-13.44c-.03-3.14-1.11-8.54-5.57-12.52-2.32-2.07-5.82-3.05-5.93,1.42-.28,11.69-1,23.32-2.06,34.96-.34,3.71,2.86,5.31,6.16,5.57,3.38.27,3.74-2.39,4.08-4.96.95-7.32,1.98-14.62,3.32-24.47Zm-337.34,237.07c.06-4.4-5.51-17.15-8.75-20.94-2.5-2.93-4.07-2.38-6.53.2-13.4,14.03-12.06,19.67,6.16,24.84,1.17.33,2.35.67,3.54.92,4.15.88,5.53-1.35,5.58-5.02Zm-245.56-431.37c8.35,9.7,16.68,19.43,25.09,29.08,1.54,1.77,3.33,1.48,4.48-.53,2.15-3.77,4.59-7.19,8.15-9.83,1.86-1.37,1.9-3.47-.62-4.11-12.88-3.27-23.32-12.01-37.1-14.61Zm297.17,70.05c-.72.13-4.89-1.26-4.88,3.44.02,4.92,2.14,9.32,7.73,9.94,7.43.82,14.49,2.69,21.39,5.47,1.65.67,3.61,1.78,5.11-.01,1.75-2.1.03-3.91-.89-5.85-5.36-11.31-15.62-12.68-28.46-12.99Zm-178.35,402.04c17.24,1.9,26.61-11.68,40.91-16.04-14.81-11.07-27.94-4.4-40.91,16.04Zm-77.35-290.78c.22,13.36,10.43,21.25,22.87,17.78,1.91-.53,4.18-2.01,5.01-3.69,1.4-2.8-1.91-3.38-3.47-4.33-5.59-3.4-10.36-7.57-14.28-12.82-1.95-2.62-3.97-6.68-7.67-5.52-4.07,1.28-1.91,5.83-2.47,8.58Zm240.95,148.32c-6.24,11.82-11.83,23.67-17.88,35.31-4.48,8.61-.86,15.72,5.95,22.48.97-19.99,8.41-38.39,11.93-57.79Zm21.44-240.05c-7.89-2.4-8.87,1.78-6.23,9.07,1.45,4.02,2.73,8.11,4.15,12.14,1.23,3.51,3.25,4.27,6.04,1.49,1.73-1.72,3.78-3.29,4.98-5.35,2.67-4.57,10.72-7.76,8.29-12.84-2.39-4.99-10.27-3.9-17.23-4.52Zm-42.9,69.42c.27-9.4-1.18-10.6-9.89-7.16-5.38,2.13-10.5,4.93-15.69,7.54-1.6.8-3.67,1.73-3.52,3.81.17,2.26,2.57,2.32,4.26,2.76,3.84.99,7.8,1.6,11.59,2.74,11.49,3.46,12.89,2.5,13.25-9.68Zm-178.06-102.14c13.44,8.65,27.12,15.76,39.75,25.12-4.68-8.89-10.11-16.96-15.68-24.93-2.35-3.37-5.8-4.52-9.78-3.64-4.78,1.06-9.53,2.29-14.29,3.45Zm369.77,249.31c13.62-17.18,12.83-29.18-2.75-45.67-2.66,15.69.89,30.07,2.75,45.67ZM231.52,916.77c-17.11,8.64-25.32,21.31-28.88,37.43-.61,2.78-1.36,6.1,1.6,7.44,3.92,1.78,4.23-2.44,5.22-4.6,4.22-9.24,9.07-18.13,14.53-26.7,2.51-3.94,6.14-7.33,7.53-13.57ZM970.37,193.15c-20.68-4.43-26.4,4.78-35.77,27.77,14.41-7.29,24.55-17.09,35.77-27.77ZM133.51,944.4c-10.25,1.21-20.51,2.32-30.74,3.67-4.54.6-5.97,4.23-5.84,8.08.17,5.14,4.49,4.35,7.61,3.98,11.4-1.37,21.41-5.85,28.97-15.73Zm317.96-259.46c-3.69-3.93-5.89-6.46-8.29-8.78-1.82-1.75-4.07-1.71-5.81.04-3.47,3.49-7.4,6.77-9.93,10.88-3.55,5.75.1,11.78,3.95,14.82,3.87,3.05,5.02-3.59,7.25-5.91,2.95-3.07,4.8-7.21,8.82-9.3,1.1-.57,2.28-1,4.03-1.75Zm593.87-54.75c-12.06-7.8-25.82-.92-37.44-7.74,4.84-2.71,9.73-2.58,14.54-2.74,3.16-.11,5.42-.77,4.81-4.79-.55-3.64-2.06-5.8-6.04-4.89-3.28.75-6.48,1.95-9.78,2.57-4.96.94-7.93,3.63-7.44,8.75.5,5.24,4.66,7.02,9.17,7.32,10.29.68,20.6,1,32.19,1.52Zm-305.7-186.64c.22-3.27-13-23.42-15.65-23.67-5.32-.5-10.04,2.45-12.42,6.36-2.55,4.2,3.23,4.76,5.58,6.47,5.65,4.14,11.62,7.85,17.43,11.77,2.35,1.58,4.44,2.59,5.07-.93Zm306.93,154.06c-4.3,2.1-7.85,4.03-9.47,9.23-1.51,4.84-1.37,8.33,2.69,11.2,4.52,3.19,9.53,5.33,15.18,5.46.32,0,1.05-.99.95-1.34-2.29-7.85-4.63-15.68-7.11-23.47-.17-.55-1.47-.73-2.23-1.08ZM207.86,865.23c17.68-1.71,28.9-10.34,40.78-22.61-16.11,5.02-32.84,4-40.78,22.61Zm33.57,1.7c11.06-2.65,22.21-4.74,27.86-16,1.26-2.52,6.14-4.44,3.43-7.4-2.56-2.81-7.27-1.78-10.21.64-8,6.59-15.45,13.79-21.08,22.76Zm11.98,205.94c22.08-5.52,42.39-15.18,61.43-27.68-22.35,4.9-41.4,17.31-61.43,27.68ZM917.96,494.05c-3.75-.57-6.31-.61-6.55,3.5-.34,5.92,8.17,14.75,14.44,14.13,6.99-.69,7.95-7.4,7.42-11.78-1.3-10.76-11.3-2.11-15.31-5.85Zm-203.27-82.54c-1.69-3.41-5.22-5-8-7.33-8.14-6.84-12.76-5.31-15.32,4.69-1.01,3.94.81,6.56,3.6,8.76,5.72,4.52,10.43-.01,15.36-1.95,1.85-.73,4.32-1.18,4.36-4.18ZM980.99,107.14c-4.23,14.75-7.66,29.64-6.68,46.95,13.72-15.22,10.61-31.01,6.68-46.95ZM335.29,667.62c-12.16-.46-21.03,4.81-29.48,11.08-3.25,2.41-3.28,4.93-.56,7.7,2.29,2.34,4.16,5.95,8.15,2.09,7.24-7.01,14.59-13.92,21.9-20.87Zm924.14,228.75c-3.03-13.96-7.61-27.26-13.32-40.17-1.03-2.33-2.81-4.63-5.59-3.82-3.7,1.07-1.72,4.08-1.08,6.15,4.28,13.83,9.96,26.97,19.99,37.84Zm-740.79-506.72c5.35,5.85,8.86,10.42,11.97,15.36,3.5,5.56,7.44,4.89,9.89-1.05,5.42-13.11,3.76-15.49-10.65-15.09-3,.08-6,.41-11.21.78Zm556.72-191.06c13.46,2.91,24.8,2.78,36.15,2.72,3.3-.02,6.48-.66,6.66-4.69.17-3.92-3.3-3.91-5.92-4.33-12.31-1.99-23.28,3.21-36.88,6.3ZM390.15,732.83c-4.44-2.13-7.94-1.56-10.81-.2-7.72,3.66-15.23,7.78-22.7,11.95-2.07,1.15-6.39,1.59-4.26,5.46,1.6,2.89,5.11,3.67,8.1,1.81,9.75-6.07,19.35-12.38,29.66-19.02Zm416.39-138.02c-4.58,6.48-9.25,12.89-13.69,19.46-3.2,4.72-2.27,10.66.97,13.63,2.59,2.38,5.7-3.06,8.41-5.22,4.14-3.29,6.47-7.24,4.24-12.83-1.93-4.85-.51-9.64.07-15.04Zm-134.25-140.62c-.66-6.88-7.8-9.93-12.52-14.79-1.03-1.06-2.54-2.08-4.11-1.1-1.99,1.24-1.29,3.19-.81,4.94,1.95,7.13,4.94,13.81,8.91,20.04.94,1.48,1.88,3.48,4.17,2.81,1.98-.58,2.58-2.53,3.03-4.29.53-2.07.75-4.22,1.32-7.6Z"/></g></svg>