<?xml version="1.0" encoding="UTF-8"?><svg id="Layer_2" xmlns="http://www.w3.org/2000/svg" viewBox="0 0 643.22 1086.03"><defs><style>.cls-1{fill:#252525;}</style></defs><g id="Layer_1-2"><path class="cls-1" d="m132.79,649.83c10.07-7.62,20.91-13.27,33.82-13.7,3.41-.11,6.82-.15,10.23-.24,4.17-.11,7.45-1.41,10.22-5.01,2.88-3.74,6.71-5.99,12.22-5.68,4.93.28,9.95-1.63,15.22-1.21-4.13-2.46-8.17-4.79-12.88-5.95-19.09-4.7-36.3,1-52.94,9.51-3.02,1.55-5.1,2.55-6.62-1.38-1.07-2.77-3.39-2.7-5.71-2.31-1.1.18-2.16.69-3.2,1.13-1.95.83-4.34,2.01-5.73,0-1.72-2.51,1.84-3.15,2.84-5.34-5.27.42-4.95-1.54-2.14-4.67,1.95-2.18,4.26-3.77,6.89-4.9,22.14-9.52,45.23-10.26,68.59-6.74,4.88.73,10.49,2.05,12.8,8.09.47,1.23,2.48,4.64,4.71.52,1.29-2.39,2.99-.18,4.26.4,11.83,5.47,13.11,5.16,20.44-5.65,8.67-12.8,14.91-26.78,20.13-41.27,1.13-3.12,1.61-6.57,4.29-9.8,1.17,3.71,2.1,6.87,3.16,9.99.87,2.55,2.49,4.18,5.04,2.03,3.76-3.18,6.95-.59,9.81,1.06,3.34,1.94,1.37,5.13.31,7.63-7.37,17.47-15.4,34.62-25.37,50.81-2.18,3.54-4.33,7.22-5.66,11.12-2.56,7.5-2.91,14.79,3.64,20.99,3,2.84,5.21,6.51,8.03,9.57,3.72,4.04,7.16,8.67,11.69,11.51,4.32,2.72,4.72,8.09,9.53,10.47,4.8,2.38,8.48,6.94,12.99,10.05,2.4,1.66,5.32,5.58,8.19,2.93,2.59-2.39-.45-5.9-1.67-8.78-3.8-8.94-9.31-17.44-7.34-28.4,4.36,2.25,1.19,7.45,4.89,9.97,1.09-2.97.51-5.71-.35-8.51-3.17-10.33-6.52-20.61-9.36-31.02-3.65-13.36-7.22-26.83-2.1-40.67.85-2.31,1.51-4.77,2.82-6.81,5.47-8.55,6.76-18.08,6.29-27.82-.81-16.62-1.75-33.24-7.2-49.26-2.53-7.44-7.09-12.83-13.43-17.02-19.51-12.88-40.15-23.53-62.22-31.32-4.2-1.48-8.4-2.1-12.84-1.36-2.22.37-4.59.62-6.75.21-2.04-.39-5-.96-4.63-3.88.33-2.62,2.87-2.49,5.22-1.89-.72-1.96-2.32-1.98-3.36-1.92-6.27.34-6.89-5.86-10.21-8.85-1.21-1.09-.66-5.31,1.42-5.06,5.4.64,10.35-1.91,16.34.81,19.42,8.81,38.58,18.41,59.14,24.56,4.27,1.28,7.04,5.03,10.53,7.6,3.12,2.31,6.39,4.91,10.24,2.27,3.73-2.57,2.95-6.49,1.91-10.35-2.2-8.18-6.54-14.84-13.33-19.92-17.99-13.45-36.56-25.6-58.83-31.21-9.85-2.48-20.02-5.58-27.34-13.23-5.91-6.18-11.12-12.88-20.1-14.73-1.18-.24-2.06-1.28-1.86-2.53.3-1.89,1.93-1.62,3.16-1.33,4.87,1.14,4.35-.29,3.83-4.74-2.47-20.92-18.13-32.47-32.1-44.22-22.23-18.7-47.86-31.82-76.54-38.37-9.94-2.27-19.88-4.56-29.33-8.75-9.23-4.09-19.15-3.84-28.98-2.37-2.82.42-5.93,1.74-7.15-2.12-1.14-3.6.78-5.81,4.28-6.66,3.08-.76,4.19-2.54,4.07-5.76-.24-6.54,1.32-12.53,5.07-18.2,3.24-4.91,3.56-11.12,5.26-16.73,2.86-9.47,4.85-10.94,14.05-6.83,4.99,2.23,7.39,1.52,10.71-2.75,5.87-7.55,12.72-14.34,19.56-21.15-.28,2.98-2.42,4.78-4.19,6.79-5.49,6.26-10.9,12.6-16.55,18.73-5.24,5.69-7.56,12.68-9.02,19.94-1.83,9.13,1.8,15.14,10.73,17.89,10.32,3.18,20.78,5.91,31.15,8.93,3.91,1.14,5.22-.04,4.66-4.12-1.55-11.41,2.36-20.93,10.9-28.42,4.66-4.09,9.72-7.75,14.74-11.4,1.74-1.27,3.26-2.58,4.15-4.53,1.62-3.56,3.99-6.38,7.56-8.17,3.24-1.63,3.79-4.95,4.89-7.98.72-1.98,1.19-5.11,4.23-4.27,2.41.67,2.19,3.43,1.72,5.43-2.04,8.67-4.18,17.31-6.47,25.92-.75,2.83-2.92,4.76-5.31,6.46-5.56,3.98-10.76,8.36-14.85,13.96-2.72,3.72-3.64,7.88-3.63,12.31.02,6.4,6.22,7.83,9.87,10.42,8.6,6.12,17.74,12.7,27.66,15.3,6.04,1.59,8.03,4.88,11.91,8.03,13.04,10.57,24.14,22.91,35.8,34.83,8.79,8.98,16.19,18.27,19.37,30.53.51,1.95,1.75,3.31,3.34,4.43,7.62,5.38,15.67,9.99,24.49,13.11,2.09.74,4.23,1.37,6.65.73,1.96-.53,3.71.22,5.57,1.67,6.11,4.77,12.5,9.2,19.53,12.59,11.67,5.62,22.43,12.62,32.21,21.14,5.45,4.75,10.47,3.95,13.77-2.66,9.24-18.47,18.41-36.99,27.15-55.7,4.41-9.43,2.81-14.86-4.63-22.33-3.11-3.12-6.72-5.53-10.3-8.02-5.86-4.06-10.86-8.83-13.61-15.62-2.33-5.75-6.97-9.57-12.09-12.42-8.75-4.88-14.91-12.08-20.13-20.32-.61-.96-1.33-1.85-1.96-2.79-1.16-1.72-3.5-4.75-3.25-4.99,2.63-2.48,2.67-6.08,4.34-8.77,1.24-1.98,3.03.22,3.61,1.71,1.04,2.66,2.44,5.11,3.62,7.68,5.22,11.39,14.74,18.55,24.53,25.43,4.29,3.02,7.85,6.49,10.07,11.3,1.47,3.17,3.83,5.71,6.73,7.57,11.1,7.1,21.15,15.26,28.03,26.76.51.85,1.06,1.78,2.17,1.17,1.69-.92,3.59-2.3,3.66-4.09.11-2.6,1.31-3.07,3.37-4.11,4.73-2.39,6.23-7.41,7.85-12.06,1.69-4.87,2.06-10.01,2.58-15.09,1.72-16.82,9.33-31.49,16.95-46.13,2.28-4.38,4.43-8.78,6.3-13.35,2.07-5.04,5.75-5.73,9.81-2.06,3.01,2.72,5.29,6.03,6.21,10.01.7,3,2.33,4.54,5.31,5.04,4.67.78,9.31,1.72,13.96,2.62.95.18,2.03.53,2.62-.36.75-1.14,0-2.28-.82-3.02-4.48-4.03-8.38-8.7-14.09-11.33-9.44-4.35-19.42-7.4-28.66-12.28-2.78-1.47-4.11-3.5-5.77-5.75-1.42-1.92-.5-2.54.9-3.5,3.26-2.23,6.75-3.39,10.73-2.72,2.99.5,5.98,1.04,8.98,1.44,1.18.16,2.82,1.14,3.4-.74.36-1.18-.81-1.98-1.64-2.76-6.79-6.35-11.44-13.99-13.79-23.01-.05-.18-.15-.37-.15-.55,0-4.04-6.07-8.35-4.28-9.54,4.26-2.84,2.13-6.37,3.06-9.39,1.42-4.6,2.68-9.57,7.12-11.88,8.21-4.28,11.53-12.32,16.01-19.44,1.51-2.4,3.79-4.5,4.71-6.9,2.72-7.11,9.51-9.21,14.87-12.74,7.71-5.08,10.6-12.51,12.56-20.71.37-1.53.33-3.13,2.03-3.69,10.93-3.62,13.33-13.85,17.2-22.67,6.96-15.88,8.53-33.37,14.19-49.68,3.79-10.91,7.14-21.98,11.01-32.87,1.39-3.9,3.56-7.61,8.08-8.97,1.86-.56,3.93-1.09,5.46.15,2.02,1.64.21,3.52-.51,5.1-7.95,17.48-13.81,35.67-18.42,54.29-.45,1.83-.78,3.71-1.01,5.58-.13,1.03-.74,2.49.73,2.93.71.21,1.99-.28,2.51-.89,4.9-5.68,12.45-8.44,16.45-15.13,1.97-3.31,5.79-5.61,5.22-10.26-.16-1.31.23-2.94,1.85-3.07,1.86-.15,2.6,1.4,2.7,3.02.09,1.31-.02,2.67-.31,3.95-.74,3.25.1,5.17,3.78,5.26,1.74.04,3.69.37,3.68,2.65-.02,2.75-2.22,1.86-3.81,1.92-6.35.26-10.61,3.43-12.25,9.5-.71,2.64-2.26,3.64-4.77,4.02-8.2,1.26-13.49,5.97-16.6,13.63-11.73,28.92-27.84,54.99-50.41,76.8-5.28,5.1-8.89,11.27-11.8,17.93-1.6,3.66-1.12,6.29,2.49,8.69,3.75,2.5,7.03,5.72,10.45,8.7.69.6,1.28,1.61.51,2.48-.79.9-1.9.42-2.53-.23-3.49-3.6-7.45-5.7-12.67-4.84-.71.12-2.02-.63-2.32-1.31-1.25-2.81-2.43-4.3-5.87-2.3-3.09,1.8-4.17,3.54-3.53,7.24,1.93,11.18,7.59,20.25,14.36,29.08,9.95,12.97,21.9,24.11,32.33,36.61,9.74,11.67,21.22,21.66,30.97,33.28,2.31,2.75,4.38,5.7,6.49,8.62,2.08,2.88,3.5,6.18,8.39,5.06,3.07-.7,3.69,2.43,3.17,4.69-1.07,4.62.08,8.94.7,13.45,3.02,21.98,4,43.78-6.84,64.37-1.61,3.06-3.92,4.97-6.5,6.89-.88.66-1.9,1.64-1.3,2.87.68,1.4,1.91.7,2.95.3.97-.37,2.05-1.52,2.82.08.55,1.14-.16,2.22-.85,3.13-1.07,1.41-2.57,2.16-4.24,2.7-2.52.82-5.01,1.74-7.48,2.7-9.27,3.59-14.1,10.83-14.35,20.81-.09,3.71,1.49,3.98,4.06,2.57,4.31-2.37,8.52-4.92,12.71-7.52,7.39-4.58,15.24-3.03,21.19,4.75-2.72,0-5.09.27-7.37-.05-8.88-1.24-12.95,6.77-19.29,10.25-5.46,3-11.51,5.65-15.65,10.99-1.67,2.15-2.74,3.71-.76,5.75,3.11,3.22,1.33,3.72-1.85,4.9-27.98,10.39-52.34,26.26-73.55,47.41-10.33,10.3-21.02,20.1-29.72,31.96-6.14,8.37-10.14,17.73-14.71,26.85-1.4,2.79-.39,4.98,1.68,7.12,2.19,2.26,1.96,4.26-1.63,4.35-2.01.05-3.95.41-3.27,2.56,1.35,4.27-.36,8.69,1.08,12.85,1.8,5.2.7,10.53.78,15.81.02,1.41-.49,3.06-1.94,3.08-4.73.07-3.2,2.97-3.18,5.73.21,26.96,12.52,51.37,16.31,77.6,1.15,7.98,5.63,15.21,9.69,22.3,1.39,2.42,3.24,4.29,5.97,4.91,6.95,1.58,12.19,6.83,19.07,8.68,3.5.94,5.85.51,7.67-2.62,3.89-6.7,10.37-11.59,13.24-19.05.87-2.26,1.41-4.22.22-6.47-2.33-4.41-.95-7.92,2.6-11.07,4.85-4.3,4.95-6.15-.71-8.47-13.63-5.58-26.01-14.04-40.48-17.67-.73-.18-1.5-.34-2.17-.68-2.73-1.39-7.78-2.25-6.25-5.69.97-2.2,6.27-3.87,10.15-2.63,2.31.74,4.33,2.35,6.57,3.34,2.82,1.24,5.63,2,8.61-.03,2.4-1.64,5.18-1.11,7.65-.04,9.18,3.98,18.43,7.86,27.39,12.29,2.9,1.43,4.73,1.21,6.25-1.13,6.38-9.78,16.26-16.44,23.08-25.74,6.26-8.54,9.35-18.64,11.18-28.92.72-4.05,4-6.86,4.07-10.99,0-.4,1.19-1.17,1.74-1.11,5.71.72,6.6-3.83,7.57-7.45,3.08-11.51,6.75-22.9,7.91-34.85.56-5.74,3.46-10.82,4.84-16.27,3.23-12.8,9.03-24.44,14.96-36.06,2.82-5.52,7.05-8.85,13.55-8.51,1.12.06,2.61-.06,3.27.58,6.31,6.14,14.62,3.28,21.84,5.12,8.21,2.09,16.75,3.3,24.34,7.39,5.08,2.74,10.41,4.47,16.14,5.12,1.48.17,3.2.39,4.3,1.24,1.53,1.18,4.53,1.46,4.34,3.69-.16,1.95-2.97,1.89-4.92,2.83,2.01,2.83,4.7,4.25,7.84,5.11,2.55.69,3.98,2.36,3.3,5.06-.8,3.22-3.37,1.84-5.15,1.43-3.12-.71-6.23-1.65-9.19-2.89-12.89-5.41-26.3-6.75-39.97-4.74-8.13,1.2-14.58,5.04-16.51,14.02-2.68,12.43-7.47,24.23-11.11,36.38-1.82,6.06-2.58,12.24-3.03,18.46-.4,5.39,1.09,6.14,6.45,4.86,5.78-1.38,9.57-5.94,14.67-8.47,7.49-3.7,16.01-3.77,23.35-8.28,12.96-7.96,25.67-16.06,35.8-27.61.5-.57.92-1.36,1.56-1.62,15.37-6.37,14.97-19.65,12.67-32.27-3.38-18.53-3.33-36.93-1.65-55.47,1.18-13.02,6.88-24.3,14.44-34.73,4.76-6.56,9.81-12.77,12.3-20.86,1.71-5.57,7.1-9.54,7.79-16.78,7.71,12.46,5.08,22.81-1.64,33.11-6.07,9.3-13.31,17.96-16.24,29.09-3.42,12.99-4.59,26.04-2.52,39.37,1.1,7.1,1.95,14.25,2.9,21.37.6,4.52,1.42,8.73,5.21,12.13,2.96,2.66,2.45,10.72-.09,14.39-7.02,10.13-14.37,20.01-22.93,28.9-7.43,7.71-18.1,11.65-25.18,19.19-5.73,6.11-12.74,9.3-19.04,13.97-1.97,1.46-3.82,3.35-6.04,4.15-6.63,2.38-11.08,7.84-16.87,11.36-.79.48-1.83,1.18-2.01,1.95-2.24,9.49-11.15,10.36-17.94,13.59-11.49,5.47-20.01,13.7-27.15,24.15-11.1,16.23-19.79,33.84-30.11,50.51-6.84,11.05-12.39,22.91-20.42,33.22-5.23,6.71-10.82,13.13-16.09,19.8-7.48,9.48-11.93,20.35-15.05,31.97-5.88,21.91-4.83,44.34-5.48,66.62-.55,18.9-1.14,37.84-.14,56.75,1.47,27.76.58,55.71,6.87,83.07.44,1.9,1.16,3.57,2.18,5.18,5.09,7.99,9.97,16.12,15.27,23.96,7.98,11.81,11.81,24.35,8.91,38.71-.77,3.79-2.21,5.13-5.86,5.19-20.65.35-41.3.78-61.95,1.28-15.15.36-30.3.79-45.44,1.38-2.96.11-5.59-.27-8.18-1.69-8.48-4.64-17.06-9.09-25.47-13.85-6.69-3.79-14.19-3.88-21.42-5.11-11.22-1.89-22.52-3.03-33.93-2.5-2.31.11-4.56-.24-6.59-1.4-3.16-1.8-4.47-4.26-1.86-7.41,5.74-6.94,9.33-15.13,13.56-22.94,1.11-2.05,2.3-4.61,4.44-4.94,10.18-1.56,19.65-8.53,30.78-3.39,5.9,2.73,12.29,1.23,18.38-.61,3.33-1.01,3.06-3.12,2.11-5.81-4.2-11.86.24-26.73,10.21-34.54,1.33-1.05,2.75-2.63,4.22-2.74,5.96-.44,9.62-3.89,13.55-7.97,2.66-2.76,3.87-5.2,3.9-8.81.3-33.54,4.08-66.9,5.37-100.39.83-21.58,1.73-43.13,4.68-64.56,1.33-9.71,2.43-19.41-.82-29.2-2.65-8-6.04-14.94-13.43-19.65-15.32-9.77-30.34-20.03-45.74-29.68-18.83-11.79-33.89-27.13-45.27-46.15-9.61-5.51-13.65-16.98-23.63-22.08-3.38-1.73-6.62-1.95-10.34-.49-4.02,1.58-8.38,2.28-12.61,3.29-1.29.31-2.93.55-3.72-.68-5.71-8.96-14.36-5.64-22.33-5.65-8.32,0-16.15,3.56-24.69,2.76Zm200.01-126.84c1.4-2.8,1.82-4.63,2.95-5.73,4.54-4.39,8.79-8.87,10.3-15.31.37-1.56,1.96-2.25,3.43-2.74,5.58-1.88,9.63-5.93,13.84-9.72,18.18-16.35,36.56-32.48,58.75-43.28,9.75-4.74,14.61-13.04,16.41-22.52,1.96-10.33,6.71-19.26,10.96-28.45,2.81-6.07,6.66-11.68,14.46-13.19,3.92-.76,7.96-3.09,10.48-6.44,9.81-13.03,11.51-35.56,3.83-50.18-6.47-12.33-16.79-21.33-25.91-31.42-5.78-6.39-12.62-8.41-20.83-6.85-1.94.37-4.16.28-5.4-1.07-3.76-4.09-9.13-4.27-13.73-6.28-2.58-1.13-3.78-.58-5.35,1.94-8.42,13.51-13.43,27.71-12.58,44.03.3,5.82,1.56,12.21-2.63,18.01-7.88,10.92-16.79,20.74-26.27,30.31-17.32,17.48-27.68,39.58-37.72,61.69-5.37,11.83-7.41,23.9-4.46,36.98,3.65,16.2,6.2,32.65,9.45,50.24Z"/></g></svg>