{
  "accessors": [
    {
      "bufferView": 2,
      "componentType": 5126,
      "count": 18,
      "max": [
        2.8626511096954346,
        0.030193999409675598,
        4.5134148597717285
      ],
      "min": [
        -2.9973061084747314,
        0.03019299916923046,
        -4.487538814544678
      ],
      "type": "VEC3"
    },
    {
      "bufferView": 2,
      "byteOffset": 216,
      "componentType": 5126,
      "count": 18,
      "max": [
        0.0,
        1.0,
        0.0
      ],
      "min": [
        0.0,
        1.0,
        0.0
      ],
      "type": "VEC3"
    },
    {
      "bufferView": 1,
      "componentType": 5126,
      "count": 18,
      "max": [
        0.8933169841766357,
        0.921425998210907
      ],
      "min": [
        0.10603400319814682,
        0.04842200130224228
      ],
      "type": "VEC2"
    },
    {
      "bufferView": 0,
      "componentType": 5125,
      "count": 48,
      "type": "SCALAR"
    },
    {
      "bufferView": 2,
      "byteOffset": 432,
      "componentType": 5126,
      "count": 62,
      "max": [
        2.8626511096954346,
        0.030193999409675598,
        4.5134148597717285
      ],
      "min": [
        -2.9973061084747314,
        -0.030193999409675598,
        -4.487538814544678
      ],
      "type": "VEC3"
    },
    {
      "bufferView": 2,
      "byteOffset": 1176,
      "componentType": 5126,
      "count": 62,
      "max": [
        0.999987006187439,
        0.00010000464681070298,
        0.9970463514328003
      ],
      "min": [
        -0.9982640743255615,
        -1.0,
        -0.9968512058258057
      ],
      "type": "VEC3"
    },
    {
      "bufferView": 1,
      "byteOffset": 144,
      "componentType": 5126,
      "count": 62,
      "max": [
        0.8969129920005798,
        0.9268959760665894
      ],
      "min": [
        0.10416799783706665,
        0.044849999248981476
      ],
      "type": "VEC2"
    },
    {
      "bufferView": 0,
      "byteOffset": 192,
      "componentType": 5125,
      "count": 156,
      "type": "SCALAR"
    }
  ],
  "asset": {
    "extras": {
      "author": "Carolina Ask (https://sketchfab.com/carolinaask)",
      "license": "CC-BY-4.0 (http://creativecommons.org/licenses/by/4.0/)",
      "source": "https://sketchfab.com/3d-models/playing-card-wheatstone-stereoscope-7eab5e24a4284afcab57308b71d52f57",
      "title": "Playing card - Wheatstone stereoscope"
    },
    "generator": "Sketchfab-15.13.0",
    "version": "2.0"
  },
  "bufferViews": [
    {
      "buffer": 0,
      "byteLength": 816,
      "name": "floatBufferViews",
      "target": 34963
    },
    {
      "buffer": 0,
      "byteLength": 640,
      "byteOffset": 816,
      "byteStride": 8,
      "name": "floatBufferViews",
      "target": 34962
    },
    {
      "buffer": 0,
      "byteLength": 1920,
      "byteOffset": 1456,
      "byteStride": 12,
      "name": "floatBufferViews",
      "target": 34962
    }
  ],
  "buffers": [
    {
      "byteLength": 3376,
      "uri": "card.bin"
    }
  ],
  "extensionsUsed": [
    "KHR_materials_specular"
  ],
  "images": [
    {
      "uri": "cardfrontAsh.jpg"
    },
    {
      "uri": "tarot_normal_test.png"
    }
  ],
  "materials": [
    {
      "doubleSided": true,
      "extensions": {
        "KHR_materials_specular": {
          "specularColorFactor": [
            1.0,
            1.0,
            1.0
          ],
          "specularFactor": 0.5002895863069055
        }
      },
      "name": "back",
      "pbrMetallicRoughness": {
        "baseColorTexture": {
          "index": 0
        },
        "metallicFactor": 0.0,
        "roughnessFactor": 0.8251650331145989
      }
    },
    {
      "doubleSided": true,
      "name": "playing_card",
      "pbrMetallicRoughness": {
        "baseColorTexture": {
          "index": 1
        },
        "metallicFactor": 0.0
      }
    }
  ],
  "meshes": [
    {
      "name": "Object_0",
      "primitives": [
        {
          "attributes": {
            "NORMAL": 1,
            "POSITION": 0,
            "TEXCOORD_0": 2
          },
          "indices": 3,
          "material": 0,
          "mode": 4
        }
      ]
    },
    {
      "name": "Object_1",
      "primitives": [
        {
          "attributes": {
            "NORMAL": 5,
            "POSITION": 4,
            "TEXCOORD_0": 6
          },
          "indices": 7,
          "material": 1,
          "mode": 4
        }
      ]
    }
  ],
  "nodes": [
    {
      "children": [
        1
      ],
      "matrix": [
        1.0,
        0.0,
        0.0,
        0.0,
        0.0,
        2.220446049250313e-16,
        -1.0,
        0.0,
        0.0,
        1.0,
        2.220446049250313e-16,
        0.0,
        0.0,
        0.0,
        0.0,
        1.0
      ],
      "name": "Sketchfab_model"
    },
    {
      "children": [
        2,
        3
      ],
      "name": "playing card.obj.cleaner.materialmerger.gles"
    },
    {
      "mesh": 0,
      "name": "Object_2"
    },
    {
      "mesh": 1,
      "name": "Object_3"
    }
  ],
  "samplers": [
    {
      "magFilter": 9729,
      "minFilter": 9987,
      "wrapS": 10497,
      "wrapT": 10497
    }
  ],
  "scene": 0,
  "scenes": [
    {
      "name": "Sketchfab_Scene",
      "nodes": [
        0
      ]
    }
  ],
  "textures": [
    {
      "sampler": 0,
      "source": 0
    },
    {
      "sampler": 0,
      "source": 1
    }
  ]
}
